<?xml version="1.0" encoding="UTF-8" standalone="no"?>
<svg width="47px" height="47px" viewBox="0 0 47 47" version="1.1" xmlns="http://www.w3.org/2000/svg" xmlns:xlink="http://www.w3.org/1999/xlink">
    <!-- Generator: Sketch 41.2 (35397) - http://www.bohemiancoding.com/sketch -->
    <title>coins</title>
    <desc>Created with Sketch.</desc>
    <defs></defs>
    <g id="Page-1" stroke="none" stroke-width="1" fill="none" fill-rule="evenodd">
        <g id="(New)-In-App-purchase-(coin)" transform="translate(-164.000000, -231.000000)">
            <g id="coins" transform="translate(164.000000, 231.000000)">
                <g id="Capa_1">
                    <g id="XMLID_22_">
                        <path d="M41.4261186,23.2697797 L41.4261186,24.2559831 C41.4261186,29.7780847 32.1527797,34.2542373 20.7142542,34.2542373 C14.400322,34.2542373 8.7499661,32.8888475 4.9509322,30.738 C6.23188136,35.7128305 14.9372373,39.8305085 25.4939153,39.8305085 C36.9324407,39.8305085 46.2057797,34.996678 46.2057797,29.4745763 C46.2057797,27.0465085 44.4086271,24.9068136 41.4261186,23.2697797" id="XMLID_143_" fill="#FCC62D"></path>
                        <path d="M25.4939153,39.8305085 C14.0553898,39.8305085 4.78205085,34.996678 4.78205085,29.4745763 L4.78205085,36.204339 C4.78205085,41.7264407 14.0553898,46.2033898 25.4939153,46.2033898 C36.9324407,46.2033898 46.2057797,41.7264407 46.2057797,36.204339 L46.2057797,29.4745763 C46.2057797,34.996678 36.9324407,39.8305085 25.4939153,39.8305085" id="XMLID_142_" fill="#E4AF18"></path>
                        <path d="M7.17188136,40.9051356 C7.74958969,41.3345085 8.40465219,41.7455593 9.13021469,42.1358983 L9.13021469,35.5312034 C8.40465219,35.1249322 7.74958969,34.6987458 7.17188136,34.2542373 L7.17188136,40.9051356 L7.17188136,40.9051356 Z" id="XMLID_141_" fill="#CE9912"></path>
                        <path d="M42.2227288,35.5312034 L42.2227288,42.1358983 C42.9482913,41.7463559 43.6033538,41.3345085 44.1810621,40.9051356 L44.1810621,34.2542373 C43.604333,34.6987458 42.9492705,35.1249322 42.2227288,35.5312034" id="XMLID_140_" fill="#CE9912"></path>
                        <path d="M10.358322,43.0647458 C10.9771554,43.3252373 11.6312387,43.5713898 12.3166554,43.8047966 L12.3166554,37.2781695 C11.6312387,37.0328136 10.9771554,36.7739153 10.358322,36.5014746 L10.358322,43.0647458 L10.358322,43.0647458 Z" id="XMLID_139_" fill="#CE9912"></path>
                        <path d="M39.0362881,43.804 C39.7217048,43.5713898 40.3757881,43.3244407 40.9946215,43.0639492 L40.9946215,36.500678 C40.3757881,36.7731186 39.7217048,37.0328136 39.0362881,37.2773729 L39.0362881,43.804 L39.0362881,43.804 Z" id="XMLID_138_" fill="#CE9912"></path>
                        <path d="M13.5447627,44.4070339 C14.1773044,44.5830847 14.8304085,44.7471864 15.503096,44.9001356 L15.503096,38.4364407 C14.8304085,38.2739322 14.1773044,38.0994746 13.5447627,37.9138644 L13.5447627,44.4070339 L13.5447627,44.4070339 Z" id="XMLID_137_" fill="#CE9912"></path>
                        <path d="M35.8498475,44.9001356 C36.522535,44.7471864 37.1756391,44.5830847 37.8081808,44.4070339 L37.8081808,37.9138644 C37.1756391,38.0994746 36.522535,38.2739322 35.8498475,38.4364407 L35.8498475,44.9001356 L35.8498475,44.9001356 Z" id="XMLID_136_" fill="#CE9912"></path>
                        <path d="M17.5278136,45.4736949 C18.1672094,45.5788475 18.8212927,45.6728475 19.4861469,45.7564915 L19.4861469,39.3485593 C18.8212927,39.2585424 18.1672094,39.1581695 17.5278136,39.0466441 L17.5278136,45.4736949 L17.5278136,45.4736949 Z" id="XMLID_135_" fill="#CE9912"></path>
                        <path d="M31.8667966,45.7564915 C32.5316508,45.6720508 33.1857341,45.5780508 33.8251299,45.4736949 L33.8251299,39.0458475 C33.1857341,39.1573729 32.5316508,39.2577458 31.8667966,39.3485593 L31.8667966,45.7564915 L31.8667966,45.7564915 Z" id="XMLID_134_" fill="#CE9912"></path>
                        <path d="M22.3074746,46.1229322 C22.9517662,46.1619661 23.6058496,46.1890508 24.2658079,46.2081695 L24.2658079,39.8328983 C23.6058496,39.8121864 22.9517662,39.7835085 22.3074746,39.7412881 L22.3074746,46.1229322 L22.3074746,46.1229322 Z" id="XMLID_133_" fill="#CE9912"></path>
                        <path d="M27.0871356,46.2089661 C27.7470939,46.1890508 28.4011773,46.1627627 29.0454689,46.1237288 L29.0454689,39.7412881 C28.4011773,39.7835085 27.7470939,39.8121864 27.0871356,39.8336949 L27.0871356,46.2089661 L27.0871356,46.2089661 Z" id="XMLID_132_" fill="#CE9912"></path>
                        <path d="M20.7142542,27.8757797 C9.27572881,27.8757797 0.00238983051,23.0419492 0.00238983051,17.5198475 L0.00238983051,24.2496102 C0.00238983051,29.7717119 9.27572881,34.248661 20.7142542,34.248661 C32.1527797,34.248661 41.4261186,29.7717119 41.4261186,24.2496102 L41.4261186,17.5198475 C41.4261186,23.0419492 32.1527797,27.8757797 20.7142542,27.8757797" id="XMLID_131_" fill="#E4AF18"></path>
                        <path d="M2.39222034,28.9504068 C2.96992867,29.3797797 3.62499117,29.7908305 4.35055367,30.1811695 L4.35055367,23.5764746 C3.62499117,23.1702034 2.96992867,22.7440169 2.39222034,22.3003051 L2.39222034,28.9504068 L2.39222034,28.9504068 Z" id="XMLID_130_" fill="#CE9912"></path>
                        <path d="M37.4430678,23.5764746 L37.4430678,30.1811695 C38.1686303,29.7916271 38.8236928,29.3797797 39.4014011,28.9504068 L39.4014011,22.2995085 C38.824672,22.7440169 38.1696095,23.1702034 37.4430678,23.5764746" id="XMLID_129_" fill="#CE9912"></path>
                        <path d="M5.57866102,31.1100169 C6.19749435,31.3705085 6.85157768,31.616661 7.53699435,31.8500678 L7.53699435,25.3234407 C6.85157768,25.0780847 6.19749435,24.8191864 5.57866102,24.5467458 L5.57866102,31.1100169 L5.57866102,31.1100169 Z" id="XMLID_128_" fill="#CE9912"></path>
                        <path d="M34.2566271,31.8492712 C34.9420438,31.616661 35.5961271,31.3705085 36.2149605,31.1092203 L36.2149605,24.5459492 C35.5961271,24.8183898 34.9420438,25.0780847 34.2566271,25.3226441 L34.2566271,31.8492712 L34.2566271,31.8492712 Z" id="XMLID_127_" fill="#CE9912"></path>
                        <path d="M8.76510169,32.4523051 C9.39764336,32.6283559 10.0507475,32.7924576 10.723435,32.9454068 L10.723435,26.4817119 C10.0507475,26.3192034 9.39764336,26.1447458 8.76510169,25.9591356 L8.76510169,32.4523051 L8.76510169,32.4523051 Z" id="XMLID_126_" fill="#CE9912"></path>
                        <path d="M31.0701864,32.9454068 C31.7428739,32.7924576 32.3959781,32.6283559 33.0285198,32.4523051 L33.0285198,25.9591356 C32.3959781,26.1447458 31.7428739,26.3192034 31.0701864,26.4817119 L31.0701864,32.9454068 L31.0701864,32.9454068 Z" id="XMLID_125_" fill="#CE9912"></path>
                        <path d="M12.7481525,33.5189661 C13.3875484,33.6241186 14.0416317,33.7181186 14.7064859,33.8017627 L14.7064859,27.3938305 C14.0416317,27.3038136 13.3875484,27.2034407 12.7481525,27.0919153 L12.7481525,33.5189661 L12.7481525,33.5189661 Z" id="XMLID_124_" fill="#CE9912"></path>
                        <path d="M27.0871356,33.8025593 C27.7519898,33.7181186 28.4060731,33.6241186 29.0454689,33.5197627 L29.0454689,27.0919153 C28.4060731,27.2034407 27.7519898,27.3038136 27.0871356,27.3946271 L27.0871356,33.8025593 L27.0871356,33.8025593 Z" id="XMLID_123_" fill="#CE9912"></path>
                        <path d="M17.5278136,34.169 C18.1721052,34.2080339 18.8261886,34.2351186 19.4861469,34.2542373 L19.4861469,27.8789661 C18.8261886,27.8582542 18.1721052,27.8295763 17.5278136,27.7873559 L17.5278136,34.169 L17.5278136,34.169 Z" id="XMLID_122_" fill="#CE9912"></path>
                        <path d="M22.3074746,34.2542373 C22.9674329,34.234322 23.6215162,34.2080339 24.2658079,34.169 L24.2658079,27.7865593 C23.6215162,27.8287797 22.9674329,27.8574576 22.3074746,27.8789661 L22.3074746,34.2542373 L22.3074746,34.2542373 Z" id="XMLID_121_" fill="#CE9912"></path>
                        <path d="M40.8820339,26.5287119 C38.7495085,30.954678 30.5332712,34.2542373 20.7142542,34.2542373 C17.046661,34.2542373 13.6037119,33.7922034 10.6156271,32.9852373 C13.5057288,34.9472881 18.6494407,36.6169831 25.4939153,36.6169831 C36.3931356,36.6169831 43.019339,32.3861864 43.019339,29.4745763 C43.019339,28.5027119 42.271322,27.4718983 40.8820339,26.5287119" id="XMLID_120_" fill="#FFD949"></path>
                        <path d="M24.6973051,26.2881356 C13.2587797,26.2881356 3.98544068,21.8111864 3.98544068,16.2890847 L3.98544068,11.7866441 C1.48328814,13.3551695 0.00238983051,15.322 0.00238983051,17.5254237 C0.00238983051,23.0475254 9.27572881,27.8813559 20.7142542,27.8813559 C26.2220169,27.8813559 31.2231356,26.7589322 34.9329492,24.9801017 C31.913,25.8109661 28.4214576,26.2881356 24.6973051,26.2881356" id="XMLID_119_" fill="#FFD949"></path>
                        <path d="M24.6973051,19.909678 C13.2587797,19.909678 3.98544068,15.0758475 3.98544068,9.55374576 L3.98544068,16.2835085 C3.98544068,21.8056102 13.2587797,26.2825593 24.6973051,26.2825593 C36.1358305,26.2825593 45.4091695,21.8056102 45.4091695,16.2835085 L45.4091695,9.55374576 C45.4091695,15.0758475 36.1358305,19.909678 24.6973051,19.909678" id="XMLID_118_" fill="#E4AF18"></path>
                        <path d="M6.37527119,20.9843051 C6.95297952,21.413678 7.60804202,21.8247288 8.33360452,22.2150678 L8.33360452,15.6103729 C7.60804202,15.2041017 6.95297952,14.7779153 6.37527119,14.3342034 L6.37527119,20.9843051 L6.37527119,20.9843051 Z" id="XMLID_117_" fill="#CE9912"></path>
                        <path d="M41.4261186,15.6103729 L41.4261186,22.2150678 C42.1516811,21.8255254 42.8067436,21.413678 43.384452,20.9843051 L43.384452,14.3334068 C42.8077228,14.7779153 42.1526603,15.2041017 41.4261186,15.6103729" id="XMLID_116_" fill="#CE9912"></path>
                        <path d="M9.56171186,23.1439153 C10.1805452,23.4044068 10.8346285,23.6505593 11.5200452,23.8839661 L11.5200452,17.357339 C10.8346285,17.1119831 10.1805452,16.8530847 9.56171186,16.5806441 L9.56171186,23.1439153 L9.56171186,23.1439153 Z" id="XMLID_115_" fill="#CE9912"></path>
                        <path d="M38.239678,23.8831695 C38.9250946,23.6505593 39.579178,23.4044068 40.1980113,23.1431186 L40.1980113,16.5798475 C39.579178,16.8522881 38.9250946,17.1119831 38.239678,17.3565424 L38.239678,23.8831695 L38.239678,23.8831695 Z" id="XMLID_114_" fill="#CE9912"></path>
                        <path d="M12.7481525,24.4862034 C13.3806942,24.6622542 14.0337984,24.8263559 14.7064859,24.9793051 L14.7064859,18.5156102 C14.0337984,18.3531017 13.3806942,18.1786441 12.7481525,17.9930339 L12.7481525,24.4862034 L12.7481525,24.4862034 Z" id="XMLID_113_" fill="#CE9912"></path>
                        <path d="M35.0532373,24.9793051 C35.7259248,24.8263559 36.379029,24.6622542 37.0115706,24.4862034 L37.0115706,17.9930339 C36.379029,18.1786441 35.7259248,18.3531017 35.0532373,18.5156102 L35.0532373,24.9793051 L35.0532373,24.9793051 Z" id="XMLID_112_" fill="#CE9912"></path>
                        <path d="M16.7312034,25.5528644 C17.3705992,25.6580169 18.0246826,25.7520169 18.6895367,25.835661 L18.6895367,19.4277288 C18.0246826,19.3377119 17.3705992,19.237339 16.7312034,19.1258136 L16.7312034,25.5528644 L16.7312034,25.5528644 Z" id="XMLID_111_" fill="#CE9912"></path>
                        <path d="M31.0701864,25.8364576 C31.7350406,25.7520169 32.3891239,25.6580169 33.0285198,25.553661 L33.0285198,19.1258136 C32.3891239,19.237339 31.7350406,19.3377119 31.0701864,19.4285254 L31.0701864,25.8364576 L31.0701864,25.8364576 Z" id="XMLID_110_" fill="#CE9912"></path>
                        <path d="M21.5108644,26.2028983 C22.1551561,26.2419322 22.8092394,26.2690169 23.4691977,26.2881356 L23.4691977,19.9128644 C22.8092394,19.8921525 22.1551561,19.8634746 21.5108644,19.8212542 L21.5108644,26.2028983 L21.5108644,26.2028983 Z" id="XMLID_109_" fill="#CE9912"></path>
                        <path d="M26.2905254,26.2881356 C26.9504838,26.2682203 27.6045671,26.2419322 28.2488588,26.2028983 L28.2488588,19.8204576 C27.6045671,19.862678 26.9504838,19.8913559 26.2905254,19.9128644 L26.2905254,26.2881356 L26.2905254,26.2881356 Z" id="XMLID_108_" fill="#CE9912"></path>
                        <path d="M45.4091695,9.55932203 C45.4091695,15.0814237 36.1358305,19.9152542 24.6973051,19.9152542 C13.2587797,19.9152542 3.98544068,15.0814237 3.98544068,9.55932203 C3.98544068,4.03722034 13.2587797,0 24.6973051,0 C36.1358305,0 45.4091695,4.03722034 45.4091695,9.55932203" id="XMLID_107_" fill="#FCC62D"></path>
                        <path d="M24.6973051,16.7017288 C13.7980847,16.7017288 7.17188136,12.4717288 7.17188136,9.55932203 C7.17188136,6.64771186 13.7980847,2.38983051 24.6973051,2.38983051 C35.5965254,2.38983051 42.2227288,6.64771186 42.2227288,9.55932203 C42.2227288,12.4717288 35.5965254,16.7017288 24.6973051,16.7017288" id="XMLID_106_" fill="#FFD949"></path>
                        <path d="M30.0991186,10.6419153 C30.752339,10.5033051 31.1355085,10.1002203 30.9945085,9.64057627 L30.8431525,9.14986441 C30.7324237,8.789 30.3014576,8.48788136 29.7733051,8.33811864 C29.0547627,6.80305085 27.2225593,6.24701695 24.501339,6.24701695 C24.3722881,6.24701695 24.2464237,6.25020339 24.1221525,6.25498305 C23.1933051,6.29322034 22.2668475,6.204 21.544322,5.93952542 C21.2495763,5.83198305 21.0097966,5.71966102 20.8512712,5.60255932 C20.7795763,5.54998305 20.6059153,5.58344068 20.6059153,5.65035593 C20.6059153,5.76666102 20.614678,5.90447458 20.6401695,6.05742373 C20.7389492,6.65249153 20.6210508,6.56327119 20.0331525,7.15674576 C19.6922034,7.50247458 19.4205593,7.90077966 19.2237966,8.34050847 C18.6988305,8.4910678 18.2702542,8.79138983 18.1595254,9.15066102 L18.0081695,9.64137288 C17.8671695,10.1010169 18.250339,10.5041017 18.9035593,10.6427119 C19.0899661,11.8185085 19.8889661,12.8509153 21.6311525,13.4196949 L21.5355593,14.2457797 C21.5100678,14.4664407 21.319678,14.6703729 21.0424576,14.7707458 L17.5286102,16.0389492 C19.580678,16.4691186 21.9195254,16.7288136 24.501339,16.7288136 C27.0473051,16.7288136 29.356678,16.4762881 31.3880339,16.0580678 L27.950661,14.7731356 C27.6790169,14.6711695 27.4926102,14.4688305 27.4679153,14.2521525 L27.3715254,13.4196949 C29.1137119,12.8509153 29.9127119,11.8177119 30.0991186,10.6419153" id="XMLID_105_" fill="#F0C41B"></path>
                    </g>
                </g>
            </g>
        </g>
    </g>
</svg>