<?xml version="1.0" encoding="UTF-8" standalone="no"?>
<svg width="103px" height="104px" viewBox="0 0 103 104" version="1.1" xmlns="http://www.w3.org/2000/svg" xmlns:xlink="http://www.w3.org/1999/xlink">
    <!-- Generator: Sketch 41.1 (35376) - http://www.bohemiancoding.com/sketch -->
    <title>Dota2Logo</title>
    <desc>Created with Sketch.</desc>
    <defs>
        <linearGradient x1="49.4303852%" y1="-0.0904219137%" x2="48.6017004%" y2="100.267415%" id="linearGradient-1">
            <stop stop-color="#BB3119" offset="0%"></stop>
            <stop stop-color="#812112" offset="100%"></stop>
        </linearGradient>
    </defs>
    <g id="Page-1" stroke="none" stroke-width="1" fill="none" fill-rule="evenodd">
        <g id="(New-index)" transform="translate(-313.000000, -680.000000)">
            <g id="Dota2Logo" transform="translate(313.000000, 680.000000)">
                <g id="svg3842">
                    <g id="layer1" transform="translate(0.162180, 0.253507)">
                        <path d="M1.96508075,1.92302779 C1.96508075,1.92302779 5.17580394,5.22461333 9.02867177,1.28105248 L9.63004022,2.40270661 L12.4192956,2.5324036 L13.0679593,3.05119925 L13.4571581,2.01361051 L13.8463568,2.07846029 L14.5598874,3.05119925 L15.0788173,2.46755382 L16.2464135,2.5324036 L16.959944,3.31059579 L17.4140071,2.85664992 L22.0843893,2.98634947 L23.1871186,2.33785683 L23.3168523,2.98634947 L25.3925772,3.24574601 L26.2358389,2.07846029 C26.2358389,2.07846029 27.468302,3.82939145 29.673758,3.95908843 C31.8792166,4.08878799 36.2901313,3.82939145 36.2901313,3.82939145 C36.2901313,3.82939145 37.5874612,5.06152593 38.0415243,3.82939145 C38.4955899,2.59725337 38.0415243,3.05119925 38.0415243,3.05119925 L39.8577841,2.98634947 C39.8577841,2.98634947 40.4415809,3.31059579 41.0253803,0.781472435 L41.674044,2.1433075 L41.9983759,0.716622657 L44.0092338,0.91117199 C44.0092338,0.91117199 44.9173625,1.62451441 45.5660287,0.00328280494 C45.5660287,0.00328280494 50.4958733,2.07846029 52.636465,0.0681300148 C52.636465,0.0681300148 53.9986593,1.23541831 56.2689848,1.04087155 C58.5393077,0.846322212 62.2366943,2.79180014 62.3015612,5.71001857 C62.3015612,5.71001857 63.144823,4.99667615 66.5827421,5.06152593 C66.5178752,4.60758108 68.4638688,3.05119925 66.5827421,1.81906118 C66.5827421,1.81906118 68.139537,0.392376336 86.3669949,2.33785683 C86.3669949,2.33785683 87.339993,2.27300705 86.5615956,0.976021768 C85.7831981,-0.320966084 87.7940561,0.262679348 87.339993,0.19782957 C87.339993,0.19782957 87.9237898,4.21848498 90.1292484,1.7542114 C90.1292484,1.7542114 95.1888268,4.15363777 95.2536936,1.94876073 L96.2266892,2.5324036 L99.0159446,2.59725337 C99.0159446,2.59725337 98.6916127,3.95908843 101.870067,4.60758108 C101.870067,4.60758108 103.037663,9.86037353 101.480868,10.7034155 C101.480868,10.7034155 103.426859,19.9768644 102.064665,36.1891907 L99.0808115,36.2540379 L100.248408,39.2371072 C100.248408,39.2371072 97.2645516,40.1449963 98.8862108,42.998366 C98.8862108,42.998366 100.443006,42.3498734 99.3402764,43.4523119 C99.3402764,43.4523119 99.0808115,44.6195976 100.767338,44.943844 C100.767338,44.943844 99.794342,48.9645019 101.8052,48.8348024 C101.8052,48.8348024 100.248408,52.4663642 101.416001,53.3094037 C101.416001,53.3094037 100.507873,54.995485 100.832204,57.9785543 C100.832204,57.9785543 100.378139,58.4973474 99.5348771,57.7840049 C99.5348771,57.7840049 97.8483484,59.2755396 102.259266,58.8215937 L102.648464,100.779092 C102.648464,100.779092 94.3455624,95.9802441 91.1671108,99.1578601 L95.059093,99.4821065 L94.799628,100.0009 L93.1131019,100.065749 C93.1131019,100.065749 93.1779688,101.94638 91.8806414,100.195449 C91.8806414,100.195449 88.7670542,103.113666 82.9939427,100.260296 C82.9939427,100.260296 80.2046873,101.427584 77.9343644,99.6766532 C77.9343644,99.6766532 76.3775695,99.3524069 76.0532376,100.908791 C76.0532376,100.908791 73.588314,100.454845 70.1503949,101.492434 L70.4098599,100.584542 L69.9557969,100.584542 L69.89093,101.686981 C69.89093,101.686981 69.3719975,102.140927 68.6584669,101.88153 L69.1125325,100.325146 C69.1125325,100.325146 68.0746701,100.0009 67.6854714,100.973639 L68.5287357,100.779092 L68.2692682,101.88153 C68.2692682,101.88153 66.2584102,103.891858 63.7934867,102.270626 L66.3232771,102.076077 C66.3232771,102.076077 66.7773427,101.751831 66.7124758,101.297885 C66.7124758,101.297885 56.7879147,101.168188 57.1122465,101.94638 L57.890644,102.530023 C57.890644,102.530023 54.5824587,103.762158 53.0905306,102.72457 L53.0256637,101.751831 L52.5067338,101.81668 L51.6634695,103.048816 C51.6634695,103.048816 50.2364083,100.519695 45.8254937,101.94638 L46.1498255,103.048816 C46.1498255,103.048816 44.5930306,102.919119 44.0092338,103.632461 L41.5443102,99.6118035 C41.5443102,99.6118035 37.9117931,101.297885 36.0955332,99.3524069 C36.0955332,99.3524069 35.7712013,99.4172567 35.6414676,100.325146 C35.6414676,100.325146 34.1495396,100.260296 33.436009,97.9905719 C33.436009,97.9905719 32.2684154,98.3148182 32.722481,100.325146 C32.722481,100.325146 31.4900179,98.9633108 31.425151,98.1851186 L30.5170224,99.1578601 L31.1656861,99.9360498 L30.8413542,100.325146 C30.8413542,100.325146 29.47916,98.898461 28.8953631,99.2227074 L28.9602275,100.065749 L28.3764306,100.260296 L27.5980332,99.0930104 C27.5980332,99.0930104 26.7547714,99.5469537 26.6899045,100.195449 L26.3655727,99.741503 L25.9115071,100.065749 L25.3277103,100.065749 C25.3277103,100.065749 25.1331096,98.768764 24.8087778,98.5742147 L24.4844459,99.4172567 L23.3168523,99.4172567 L23.3168523,98.6390645 L22.214123,99.4172567 C22.214123,99.4172567 20.9167931,99.2227074 20.6573281,100.454845 L19.9437975,100.130599 C19.9437975,100.130599 20.0735313,98.768764 19.5545988,98.1851186 C19.5545988,98.1851186 18.8410682,97.8608723 18.711337,99.5469537 C18.711337,99.5469537 17.8680727,99.8712026 17.6086077,98.6390645 L17.0248109,98.6390645 L17.1545421,100.260296 C17.1545421,100.260296 16.8302103,99.0930104 14.1706886,99.4172567 C14.1706886,99.4172567 11.1219683,99.6118035 10.7327695,98.5742147 L10.473302,100.195449 C10.473302,100.195449 10.2787039,98.768764 7.42458162,100.065749 L6.77591793,100.0009 L6.84078481,99.1578601 L6.45158608,99.1578601 L6.19212112,100.584542 L5.54345743,100.454845 C5.54345743,100.454845 6.19212112,99.3524069 5.47859055,99.0930104 C5.47859055,99.0930104 4.44072813,99.3524069 4.31099436,100.389996 L3.66233067,100.065749 L3.72719756,98.6390645 L0.743341496,98.1851186 C0.743341496,98.1851186 2.68933514,94.6832563 1.26227399,83.1400832 C1.26227399,83.1400832 1.32714087,79.1194252 1.97580456,78.0818364 L3.53259691,78.0169867 L3.98666252,66.9926066 L1.97580456,66.6683603 C1.97580456,66.6683603 1.06767334,62.5828551 1.58660584,53.3742534 C1.58660584,53.3742534 1.91093768,53.1797067 2.81906633,53.9578963 L3.07853387,53.503953 L2.17040264,52.9851573 L2.23526953,52.0124184 L3.98666252,52.9851573 L4.11639628,49.0941989 C4.11639628,49.0941989 0.548743416,47.4729673 2.81906633,41.7013807 C2.81906633,41.7013807 -0.359385237,31.7145869 1.8460708,8.43368869 L1.26227399,8.10944237 C1.26227399,8.10944237 1.06767334,9.66582677 0.0946778055,8.17429215 L0.289278454,2.92149969 L1.45687207,3.05119925 L1.32714087,3.44029535 L0.873075262,3.56999234 L1.06767334,5.96941511 L1.45687207,6.03426489 L1.96508075,1.92302779 Z" id="path3775" fill="url(#linearGradient-1)"></path>
                        <path d="M12.1598307,20.8847561 L37.0685287,47.4729673 C37.0685287,47.4729673 38.9496555,47.2135708 39.5334523,48.7051054 C40.1172491,50.1966374 39.1442536,48.8996521 39.1442536,48.8996521 L38.3658561,48.3160093 L48.4201485,59.2106898 C48.4201485,59.2106898 47.187688,55.838527 48.8093472,58.8864435 C50.431009,61.9343625 53.0256637,64.1392369 53.0256637,64.1392369 L53.4148625,63.5555941 L51.9229344,61.8695127 C51.9229344,61.8695127 50.8202077,60.5725248 52.377,61.4155668 L54.3229911,63.9446902 C54.3229911,63.9446902 53.8689281,65.371375 55.3608535,66.6035105 L55.0365217,65.5659218 C55.0365217,65.5659218 56.3338516,66.2792642 57.4365809,68.4841412 L57.3717141,67.6410993 L58.4744434,68.678688 L58.0203778,69.2623309 L68.3990019,80.3515633 C68.3990019,80.3515633 70.7990586,86.0583 83.7723401,85.2152606 C83.7723401,85.2152606 89.9346478,77.368494 90.4535803,65.6307716 L81.8912134,59.859185 L76.8965019,59.4052391 L76.9613663,58.5621971 L78.842493,59.3403893 L79.4911567,59.4052391 L78.3884274,58.4973474 L78.9073599,57.9137045 L37.7171924,29.8988085 C37.7171924,29.8988085 35.1225377,30.0285055 35.2522689,28.3424241 L34.2144064,28.2775743 L33.6306096,27.6939315 L33.0468128,28.1478773 L32.722481,27.823631 L33.1116771,27.1751358 L31.4900179,26.2672466 L32.2684154,27.2399856 L31.8792166,27.4345349 L30.1926905,25.7484535 L30.5818893,25.2945077 L22.9276536,19.9120146 C22.9276536,19.9120146 19.4248702,16.1507583 12.1598307,20.8847561 L12.1598307,20.8847561 Z" id="path3800" fill="#FFFFFF"></path>
                        <path d="M20.0410979,62.3883058 L40.2794163,81.94037 L25.9439405,86.5446708 L25.0682453,85.9934503 C25.0682453,85.9934503 24.7763443,87.2255883 23.479017,86.3501215 C23.479017,86.3501215 24.0303803,87.2904381 24.6141797,85.669204 C24.6141797,85.669204 24.3871456,85.1504109 24.0628138,85.669204 L23.8357822,86.1555747 L23.7709154,85.2152606 L23.1871186,85.6043567 L22.7330529,85.539507 L22.6357552,86.3825464 L14.0733883,80.0273169 C14.0733883,80.0273169 12.8409278,79.5733711 13.8139233,76.6227267 C14.7869189,73.6720849 20.0410979,62.3883058 20.0410979,62.3883058 L20.0410979,62.3883058 Z" id="path3802" fill="#FFFFFF"></path>
                        <path d="M81.1128185,37.2592018 L83.1885433,23.9326726 L82.604744,23.9650975 L82.6696108,24.4838906 C82.6696108,24.4838906 82.4101459,25.618754 82.1506809,24.6135901 C81.8912134,23.6084263 82.4750128,23.3166023 82.4750128,23.3166023 L83.1561099,23.5111516 L83.1885433,23.0896306 L78.6803284,19.7823176 C78.6803284,19.7823176 77.0911,18.5826044 73.9450793,19.5877683 C70.7990586,20.5929321 61.0366647,23.0572057 61.0366647,23.0572057 L78.0640956,36.1243409 L78.2911297,35.6703951 L77.4802988,35.281299 C77.4802988,35.281299 76.9289354,34.6003814 77.9667978,34.6328063 C79.0046602,34.6652312 78.7451927,36.6107091 78.7451927,36.6107091 L79.7181908,36.6107091 L80.2695542,37.3240516 L81.1128185,37.2592018 Z" id="path3804" fill="#FFFFFF"></path>
                    </g>
                </g>
            </g>
        </g>
    </g>
</svg>