<?xml version="1.0" encoding="UTF-8" standalone="no"?>
<svg width="636px" height="632px" viewBox="0 0 636 632" version="1.1" xmlns="http://www.w3.org/2000/svg" xmlns:xlink="http://www.w3.org/1999/xlink">
    <!-- Generator: Sketch 41.1 (35376) - http://www.bohemiancoding.com/sketch -->
    <title>gray-fade-right</title>
    <desc>Created with Sketch.</desc>
    <defs>
        <linearGradient x1="100%" y1="50%" x2="50%" y2="50%" id="linearGradient-1">
            <stop stop-color="#4A4A4A" offset="0%"></stop>
            <stop stop-color="#4A4A4A" stop-opacity="0" offset="100%"></stop>
        </linearGradient>
    </defs>
    <g id="Page-1" stroke="none" stroke-width="1" fill="none" fill-rule="evenodd">
        <g id="(New-index)">
            <g id="gray-fade-right">
                <g id="gray2" stroke-width="0.25" stroke="#B3B3B3">
                    <g id="Group">
                        <g id="Page-1">
                            <g id="Group">
                                <path d="M0,0 L34.925,42.908" id="Shape"></path>
                                <path d="M34.925,42.908 L26.67,0" id="Shape"></path>
                                <path d="M34.925,42.908 L0,127.1465" id="Shape"></path>
                                <path d="M0,127.1465 L61.9125,157.75" id="Shape"></path>
                                <path d="M34.925,42.908 L61.9125,157.75" id="Shape"></path>
                                <path d="M0,79.8215 L34.925,42.908" id="Shape"></path>
                                <path d="M61.9125,157.75 L0,173.525" id="Shape"></path>
                                <path d="M34.925,42.908 L84.7725,95.281" id="Shape"></path>
                                <path d="M61.9125,157.75 L84.7725,95.281" id="Shape"></path>
                                <path d="M84.7725,95.281 L26.67,0" id="Shape"></path>
                                <path d="M84.7725,95.281 L158.75,2.2085" id="Shape"></path>
                                <path d="M84.7725,35.6515 L26.67,0" id="Shape"></path>
                                <path d="M84.7725,35.6515 L158.75,0" id="Shape"></path>
                                <path d="M84.7725,95.281 L84.7725,35.6515" id="Shape"></path>
                                <path d="M84.7725,35.6515 L104.4575,0" id="Shape"></path>
                                <path d="M84.7725,95.281 L104.4575,157.75" id="Shape"></path>
                                <path d="M104.4575,159.9585 L158.75,0" id="Shape"></path>
                                <path d="M61.9125,157.75 L90.805,221.1655" id="Shape"></path>
                                <path d="M61.9125,157.75 L104.4575,157.75" id="Shape"></path>
                                <path d="M90.805,221.1655 L104.4575,159.9585" id="Shape"></path>
                                <path d="M90.805,221.1655 L55.5625,173.525" id="Shape"></path>
                                <path d="M55.5625,173.525 L0,173.525" id="Shape"></path>
                                <path d="M55.5625,173.525 L61.9125,157.75" id="Shape"></path>
                                <path d="M55.5625,173.525 L0,211.7005" id="Shape"></path>
                                <path d="M90.805,221.1655 L48.26,265.9665" id="Shape"></path>
                                <path d="M48.26,265.9665 L61.9125,217.695" id="Shape"></path>
                                <path d="M61.9125,217.695 L55.5625,173.525" id="Shape"></path>
                                <path d="M61.9125,217.695 L0,211.7005" id="Shape"></path>
                                <path d="M48.26,265.9665 L17.4625,243.566" id="Shape"></path>
                                <path d="M17.4625,243.566 L61.9125,217.695" id="Shape"></path>
                                <path d="M17.4625,243.566 L0,211.7005" id="Shape"></path>
                                <path d="M17.4625,243.566 L0,296.57" id="Shape"></path>
                                <path d="M0,315.5 L48.26,296.57" id="Shape"></path>
                                <path d="M0,296.57 L48.26,296.57" id="Shape"></path>
                                <path d="M48.26,296.57 L17.4625,243.566" id="Shape"></path>
                                <path d="M48.26,296.57 L48.26,265.9665" id="Shape"></path>
                                <path d="M48.26,296.57 L90.805,221.1655" id="Shape"></path>
                                <path d="M90.805,221.1655 L90.805,265.9665" id="Shape"></path>
                                <path d="M90.805,265.9665 L48.26,296.57" id="Shape"></path>
                                <path d="M48.26,296.57 L90.805,315.5" id="Shape"></path>
                                <path d="M90.805,265.9665 L131.445,286.474" id="Shape"></path>
                                <path d="M131.445,286.474 L48.26,296.57" id="Shape"></path>
                                <path d="M90.805,315.5 L131.445,286.474" id="Shape"></path>
                                <path d="M131.445,286.474 L176.2125,315.5" id="Shape"></path>
                                <path d="M131.445,286.474 L142.24,315.5" id="Shape"></path>
                                <path d="M131.445,286.474 L90.805,221.1655" id="Shape"></path>
                                <path d="M158.75,0 L188.2775,35.6515" id="Shape"></path>
                                <path d="M132.08,79.8215 L188.2775,35.6515" id="Shape"></path>
                                <path d="M132.08,79.8215 L84.7725,95.281" id="Shape"></path>
                                <path d="M132.08,79.8215 L180.34,111.3715" id="Shape"></path>
                                <path d="M180.34,111.3715 L188.2775,35.6515" id="Shape"></path>
                                <path d="M188.2775,35.6515 L228.6,0" id="Shape"></path>
                                <path d="M188.2775,35.6515 L247.65,61.207" id="Shape"></path>
                                <path d="M247.65,61.207 L317.5,2.2085" id="Shape"></path>
                                <path d="M247.65,61.207 L228.6,0" id="Shape"></path>
                                <path d="M247.65,61.207 L269.875,0" id="Shape"></path>
                                <path d="M247.65,61.207 L180.34,111.3715" id="Shape"></path>
                                <path d="M104.4575,157.75 L180.34,111.3715" id="Shape"></path>
                                <path d="M282.575,31.8655 L317.5,61.207" id="Shape"></path>
                                <path d="M277.1775,86.1315 L247.65,61.207" id="Shape"></path>
                                <path d="M277.1775,86.1315 L282.575,31.8655" id="Shape"></path>
                                <path d="M277.1775,86.1315 L317.5,127.1465" id="Shape"></path>
                                <path d="M277.1775,86.1315 L317.5,61.207" id="Shape"></path>
                                <path d="M277.1775,86.1315 L180.34,111.3715" id="Shape"></path>
                                <path d="M277.1775,86.1315 L317.5,173.525" id="Shape"></path>
                                <path d="M277.1775,86.1315 L258.7625,123.045" id="Shape"></path>
                                <path d="M258.7625,123.045 L317.5,173.525" id="Shape"></path>
                                <path d="M258.7625,123.045 L180.34,111.3715" id="Shape"></path>
                                <path d="M104.4575,157.75 L142.24,202.8665" id="Shape"></path>
                                <path d="M90.805,221.1655 L142.24,202.8665" id="Shape"></path>
                                <path d="M131.445,286.474 L142.24,202.8665" id="Shape"></path>
                                <path d="M258.7625,123.045 L219.3925,157.75" id="Shape"></path>
                                <path d="M219.3925,157.75 L180.34,111.3715" id="Shape"></path>
                                <path d="M219.3925,157.75 L317.5,173.525" id="Shape"></path>
                                <path d="M173.355,140.3975 L219.3925,157.75" id="Shape"></path>
                                <path d="M173.355,140.3975 L104.4575,157.75" id="Shape"></path>
                                <path d="M142.24,202.8665 L173.355,140.3975" id="Shape"></path>
                                <path d="M219.3925,157.75 L142.24,202.8665" id="Shape"></path>
                                <path d="M219.3925,157.75 L268.605,202.8665" id="Shape"></path>
                                <path d="M268.605,202.8665 L317.5,173.525" id="Shape"></path>
                                <path d="M268.605,202.8665 L219.3925,180.1505" id="Shape"></path>
                                <path d="M219.3925,180.1505 L142.24,202.8665" id="Shape"></path>
                                <path d="M219.3925,180.1505 L219.3925,157.75" id="Shape"></path>
                                <path d="M268.605,202.8665 L317.5,227.791" id="Shape"></path>
                                <path d="M268.605,202.8665 L251.7775,235.994" id="Shape"></path>
                                <path d="M251.7775,235.994 L317.5,227.791" id="Shape"></path>
                                <path d="M251.7775,235.994 L219.3925,180.1505" id="Shape"></path>
                                <path d="M251.7775,235.994 L317.5,270.068" id="Shape"></path>
                                <path d="M317.5,315.5 L282.575,253.031" id="Shape"></path>
                                <path d="M282.575,253.031 L243.84,315.5" id="Shape"></path>
                                <path d="M243.84,315.5 L251.7775,235.994" id="Shape"></path>
                                <path d="M188.2775,235.994 L142.24,202.8665" id="Shape"></path>
                                <path d="M188.2775,235.994 L219.3925,180.1505" id="Shape"></path>
                                <path d="M188.2775,235.994 L131.445,286.474" id="Shape"></path>
                                <path d="M188.2775,235.994 L251.7775,235.994" id="Shape"></path>
                                <path d="M188.2775,235.994 L176.2125,315.5" id="Shape"></path>
                                <path d="M188.2775,235.994 L243.84,315.5" id="Shape"></path>
                                <path d="M176.2125,315.5 L221.9325,284.2655" id="Shape"></path>
                                <path d="M221.9325,284.2655 L251.7775,235.994" id="Shape"></path>
                                <path d="M243.84,315.5 L282.575,286.474" id="Shape"></path>
                                <path d="M282.575,286.474 L317.5,315.5" id="Shape"></path>
                                <path d="M282.575,286.474 L282.575,253.031" id="Shape"></path>
                                <path d="M635,0 L600.075,42.908" id="Shape"></path>
                                <path d="M600.075,42.908 L608.33,0" id="Shape"></path>
                                <path d="M600.075,42.908 L635,127.1465" id="Shape"></path>
                                <path d="M635,127.1465 L573.0875,157.75" id="Shape"></path>
                                <path d="M600.075,42.908 L573.0875,157.75" id="Shape"></path>
                                <path d="M635,79.8215 L600.075,42.908" id="Shape"></path>
                                <path d="M573.0875,157.75 L635,173.525" id="Shape"></path>
                                <path d="M600.075,42.908 L550.2275,95.281" id="Shape"></path>
                                <path d="M573.0875,157.75 L550.2275,95.281" id="Shape"></path>
                                <path d="M550.2275,95.281 L608.33,0" id="Shape"></path>
                                <path d="M550.2275,95.281 L476.25,2.2085" id="Shape"></path>
                                <path d="M550.2275,35.6515 L608.33,0" id="Shape"></path>
                                <path d="M550.2275,35.6515 L476.25,0" id="Shape"></path>
                                <path d="M550.2275,95.281 L550.2275,35.6515" id="Shape"></path>
                                <path d="M550.2275,35.6515 L530.5425,0" id="Shape"></path>
                                <path d="M550.2275,95.281 L530.5425,157.75" id="Shape"></path>
                                <path d="M530.5425,159.9585 L476.25,0" id="Shape"></path>
                                <path d="M573.0875,157.75 L544.195,221.1655" id="Shape"></path>
                                <path d="M573.0875,157.75 L530.5425,157.75" id="Shape"></path>
                                <path d="M544.195,221.1655 L530.5425,159.9585" id="Shape"></path>
                                <path d="M544.195,221.1655 L579.4375,173.525" id="Shape"></path>
                                <path d="M579.4375,173.525 L635,173.525" id="Shape"></path>
                                <path d="M579.4375,173.525 L573.0875,157.75" id="Shape"></path>
                                <path d="M579.4375,173.525 L635,211.7005" id="Shape"></path>
                                <path d="M544.195,221.1655 L586.74,265.9665" id="Shape"></path>
                                <path d="M586.74,265.9665 L573.0875,217.695" id="Shape"></path>
                                <path d="M573.0875,217.695 L579.4375,173.525" id="Shape"></path>
                                <path d="M573.0875,217.695 L635,211.7005" id="Shape"></path>
                                <path d="M586.74,265.9665 L617.5375,243.566" id="Shape"></path>
                                <path d="M617.5375,243.566 L573.0875,217.695" id="Shape"></path>
                                <path d="M617.5375,243.566 L635,211.7005" id="Shape"></path>
                                <path d="M617.5375,243.566 L635,296.57" id="Shape"></path>
                                <path d="M635,315.5 L586.74,296.57" id="Shape"></path>
                                <path d="M635,296.57 L586.74,296.57" id="Shape"></path>
                                <path d="M586.74,296.57 L617.5375,243.566" id="Shape"></path>
                                <path d="M586.74,296.57 L586.74,265.9665" id="Shape"></path>
                                <path d="M586.74,296.57 L544.195,221.1655" id="Shape"></path>
                                <path d="M544.195,221.1655 L544.195,265.9665" id="Shape"></path>
                                <path d="M544.195,265.9665 L586.74,296.57" id="Shape"></path>
                                <path d="M586.74,296.57 L544.195,315.5" id="Shape"></path>
                                <path d="M544.195,265.9665 L503.555,286.474" id="Shape"></path>
                                <path d="M503.555,286.474 L586.74,296.57" id="Shape"></path>
                                <path d="M544.195,315.5 L503.555,286.474" id="Shape"></path>
                                <path d="M503.555,286.474 L458.7875,315.5" id="Shape"></path>
                                <path d="M503.555,286.474 L493.0775,315.5" id="Shape"></path>
                                <path d="M503.555,286.474 L544.195,221.1655" id="Shape"></path>
                                <path d="M476.25,0 L447.04,35.6515" id="Shape"></path>
                                <path d="M502.92,79.8215 L447.04,35.6515" id="Shape"></path>
                                <path d="M502.92,79.8215 L550.2275,95.281" id="Shape"></path>
                                <path d="M502.92,79.8215 L454.9775,111.3715" id="Shape"></path>
                                <path d="M454.9775,111.3715 L447.04,35.6515" id="Shape"></path>
                                <path d="M447.04,35.6515 L406.4,0" id="Shape"></path>
                                <path d="M447.04,35.6515 L387.35,61.207" id="Shape"></path>
                                <path d="M387.35,61.207 L317.5,2.2085" id="Shape"></path>
                                <path d="M387.35,61.207 L406.4,0" id="Shape"></path>
                                <path d="M387.35,61.207 L365.125,0" id="Shape"></path>
                                <path d="M387.35,61.207 L454.9775,111.3715" id="Shape"></path>
                                <path d="M530.5425,157.75 L454.9775,111.3715" id="Shape"></path>
                                <path d="M352.425,31.8655 L317.5,61.207" id="Shape"></path>
                                <path d="M358.14,86.1315 L387.35,61.207" id="Shape"></path>
                                <path d="M358.14,86.1315 L352.425,31.8655" id="Shape"></path>
                                <path d="M358.14,86.1315 L317.5,127.1465" id="Shape"></path>
                                <path d="M358.14,86.1315 L317.5,61.207" id="Shape"></path>
                                <path d="M358.14,86.1315 L454.9775,111.3715" id="Shape"></path>
                                <path d="M358.14,86.1315 L317.5,173.525" id="Shape"></path>
                                <path d="M358.14,86.1315 L376.2375,123.045" id="Shape"></path>
                                <path d="M376.2375,123.045 L317.5,173.525" id="Shape"></path>
                                <path d="M376.2375,123.045 L454.9775,111.3715" id="Shape"></path>
                                <path d="M530.5425,157.75 L492.76,202.8665" id="Shape"></path>
                                <path d="M544.195,221.1655 L492.76,202.8665" id="Shape"></path>
                                <path d="M503.555,286.474 L492.76,202.8665" id="Shape"></path>
                                <path d="M376.2375,123.045 L415.6075,157.75" id="Shape"></path>
                                <path d="M415.6075,157.75 L454.9775,111.3715" id="Shape"></path>
                                <path d="M415.6075,157.75 L317.5,173.525" id="Shape"></path>
                                <path d="M461.645,140.3975 L415.6075,157.75" id="Shape"></path>
                                <path d="M461.645,140.3975 L530.5425,157.75" id="Shape"></path>
                                <path d="M492.76,202.8665 L461.645,140.3975" id="Shape"></path>
                                <path d="M415.6075,157.75 L492.76,202.8665" id="Shape"></path>
                                <path d="M415.6075,157.75 L366.395,202.8665" id="Shape"></path>
                                <path d="M366.395,202.8665 L317.5,173.525" id="Shape"></path>
                                <path d="M366.395,202.8665 L415.6075,180.1505" id="Shape"></path>
                                <path d="M415.6075,180.1505 L492.76,202.8665" id="Shape"></path>
                                <path d="M415.6075,180.1505 L415.6075,157.75" id="Shape"></path>
                                <path d="M366.395,202.8665 L317.5,227.791" id="Shape"></path>
                                <path d="M366.395,202.8665 L383.54,235.994" id="Shape"></path>
                                <path d="M383.54,235.994 L317.5,227.791" id="Shape"></path>
                                <path d="M383.54,235.994 L415.6075,180.1505" id="Shape"></path>
                                <path d="M383.54,235.994 L317.5,270.068" id="Shape"></path>
                                <path d="M317.5,315.5 L352.425,253.031" id="Shape"></path>
                                <path d="M352.425,253.031 L391.16,315.5" id="Shape"></path>
                                <path d="M391.16,315.5 L383.54,235.994" id="Shape"></path>
                                <path d="M447.04,235.994 L492.76,202.8665" id="Shape"></path>
                                <path d="M447.04,235.994 L415.6075,180.1505" id="Shape"></path>
                                <path d="M447.04,235.994 L503.555,286.474" id="Shape"></path>
                                <path d="M447.04,235.994 L383.54,235.994" id="Shape"></path>
                                <path d="M447.04,235.994 L458.7875,315.5" id="Shape"></path>
                                <path d="M447.04,235.994 L391.16,315.5" id="Shape"></path>
                                <path d="M458.7875,315.5 L413.0675,284.2655" id="Shape"></path>
                                <path d="M413.0675,284.2655 L383.54,235.994" id="Shape"></path>
                                <path d="M391.16,315.5 L352.425,286.474" id="Shape"></path>
                                <path d="M352.425,286.474 L317.5,315.5" id="Shape"></path>
                                <path d="M352.425,286.474 L352.425,253.031" id="Shape"></path>
                                <path d="M0,631 L34.925,588.092" id="Shape"></path>
                                <path d="M34.925,588.092 L26.67,631" id="Shape"></path>
                                <path d="M34.925,588.092 L0,503.8535" id="Shape"></path>
                                <path d="M0,503.8535 L61.9125,473.25" id="Shape"></path>
                                <path d="M34.925,588.092 L61.9125,473.25" id="Shape"></path>
                                <path d="M0,551.1785 L34.925,588.092" id="Shape"></path>
                                <path d="M61.9125,473.25 L0,457.475" id="Shape"></path>
                                <path d="M34.925,588.092 L84.7725,535.719" id="Shape"></path>
                                <path d="M61.9125,473.25 L84.7725,535.719" id="Shape"></path>
                                <path d="M84.7725,535.719 L26.67,631" id="Shape"></path>
                                <path d="M84.7725,535.719 L158.75,628.7915" id="Shape"></path>
                                <path d="M84.7725,595.3485 L26.67,631" id="Shape"></path>
                                <path d="M84.7725,595.3485 L158.75,631" id="Shape"></path>
                                <path d="M84.7725,535.719 L84.7725,595.3485" id="Shape"></path>
                                <path d="M84.7725,595.3485 L104.4575,631" id="Shape"></path>
                                <path d="M84.7725,535.719 L104.4575,473.25" id="Shape"></path>
                                <path d="M104.4575,471.0415 L158.75,631" id="Shape"></path>
                                <path d="M61.9125,473.25 L90.805,409.8345" id="Shape"></path>
                                <path d="M61.9125,473.25 L104.4575,473.25" id="Shape"></path>
                                <path d="M90.805,409.8345 L104.4575,471.0415" id="Shape"></path>
                                <path d="M90.805,409.8345 L55.5625,457.475" id="Shape"></path>
                                <path d="M55.5625,457.475 L0,457.475" id="Shape"></path>
                                <path d="M55.5625,457.475 L61.9125,473.25" id="Shape"></path>
                                <path d="M55.5625,457.475 L0,419.2995" id="Shape"></path>
                                <path d="M90.805,409.8345 L48.26,365.349" id="Shape"></path>
                                <path d="M48.26,365.349 L61.9125,413.305" id="Shape"></path>
                                <path d="M61.9125,413.305 L55.5625,457.475" id="Shape"></path>
                                <path d="M61.9125,413.305 L0,419.2995" id="Shape"></path>
                                <path d="M48.26,365.349 L17.4625,387.434" id="Shape"></path>
                                <path d="M17.4625,387.434 L61.9125,413.305" id="Shape"></path>
                                <path d="M17.4625,387.434 L0,419.2995" id="Shape"></path>
                                <path d="M17.4625,387.434 L0,334.43" id="Shape"></path>
                                <path d="M0,315.5 L48.26,334.43" id="Shape"></path>
                                <path d="M0,334.43 L48.26,334.43" id="Shape"></path>
                                <path d="M48.26,334.43 L17.4625,387.434" id="Shape"></path>
                                <path d="M48.26,334.43 L48.26,365.349" id="Shape"></path>
                                <path d="M48.26,334.43 L90.805,409.8345" id="Shape"></path>
                                <path d="M90.805,409.8345 L90.805,365.349" id="Shape"></path>
                                <path d="M90.805,365.349 L48.26,334.43" id="Shape"></path>
                                <path d="M48.26,334.43 L90.805,315.5" id="Shape"></path>
                                <path d="M90.805,365.349 L131.445,344.8415" id="Shape"></path>
                                <path d="M131.445,344.8415 L48.26,334.43" id="Shape"></path>
                                <path d="M90.805,315.5 L131.445,344.8415" id="Shape"></path>
                                <path d="M131.445,344.8415 L176.2125,315.5" id="Shape"></path>
                                <path d="M131.445,344.8415 L142.24,315.5" id="Shape"></path>
                                <path d="M131.445,344.8415 L90.805,409.8345" id="Shape"></path>
                                <path d="M158.75,631 L188.2775,595.3485" id="Shape"></path>
                                <path d="M132.08,551.1785 L188.2775,595.3485" id="Shape"></path>
                                <path d="M132.08,551.1785 L84.7725,535.719" id="Shape"></path>
                                <path d="M132.08,551.1785 L180.34,519.944" id="Shape"></path>
                                <path d="M180.34,519.944 L188.2775,595.3485" id="Shape"></path>
                                <path d="M188.2775,595.3485 L228.6,631" id="Shape"></path>
                                <path d="M188.2775,595.3485 L247.65,569.793" id="Shape"></path>
                                <path d="M247.65,569.793 L317.5,628.7915" id="Shape"></path>
                                <path d="M247.65,569.793 L228.6,631" id="Shape"></path>
                                <path d="M247.65,569.793 L269.875,631" id="Shape"></path>
                                <path d="M247.65,569.793 L180.34,519.944" id="Shape"></path>
                                <path d="M104.4575,473.25 L180.34,519.944" id="Shape"></path>
                                <path d="M282.575,599.1345 L317.5,569.793" id="Shape"></path>
                                <path d="M277.1775,544.8685 L247.65,569.793" id="Shape"></path>
                                <path d="M277.1775,544.8685 L282.575,599.1345" id="Shape"></path>
                                <path d="M277.1775,544.8685 L317.5,503.8535" id="Shape"></path>
                                <path d="M277.1775,544.8685 L317.5,569.793" id="Shape"></path>
                                <path d="M277.1775,544.8685 L180.34,519.944" id="Shape"></path>
                                <path d="M277.1775,544.8685 L317.5,457.475" id="Shape"></path>
                                <path d="M277.1775,544.8685 L258.7625,507.955" id="Shape"></path>
                                <path d="M258.7625,507.955 L317.5,457.475" id="Shape"></path>
                                <path d="M258.7625,507.955 L180.34,519.944" id="Shape"></path>
                                <path d="M104.4575,473.25 L142.24,428.449" id="Shape"></path>
                                <path d="M90.805,409.8345 L142.24,428.449" id="Shape"></path>
                                <path d="M131.445,344.8415 L142.24,428.449" id="Shape"></path>
                                <path d="M258.7625,507.955 L219.3925,473.25" id="Shape"></path>
                                <path d="M219.3925,473.25 L180.34,519.944" id="Shape"></path>
                                <path d="M219.3925,473.25 L317.5,457.475" id="Shape"></path>
                                <path d="M173.355,490.6025 L219.3925,473.25" id="Shape"></path>
                                <path d="M173.355,490.6025 L104.4575,473.25" id="Shape"></path>
                                <path d="M142.24,428.449 L173.355,490.6025" id="Shape"></path>
                                <path d="M219.3925,473.25 L142.24,428.449" id="Shape"></path>
                                <path d="M219.3925,473.25 L268.605,428.449" id="Shape"></path>
                                <path d="M268.605,428.449 L317.5,457.475" id="Shape"></path>
                                <path d="M268.605,428.449 L219.3925,450.8495" id="Shape"></path>
                                <path d="M219.3925,450.8495 L142.24,428.449" id="Shape"></path>
                                <path d="M219.3925,450.8495 L219.3925,473.25" id="Shape"></path>
                                <path d="M268.605,428.449 L317.5,403.209" id="Shape"></path>
                                <path d="M268.605,428.449 L251.7775,395.3215" id="Shape"></path>
                                <path d="M251.7775,395.3215 L317.5,403.209" id="Shape"></path>
                                <path d="M251.7775,395.3215 L219.3925,450.8495" id="Shape"></path>
                                <path d="M251.7775,395.3215 L317.5,360.932" id="Shape"></path>
                                <path d="M317.5,315.5 L282.575,377.969" id="Shape"></path>
                                <path d="M282.575,377.969 L243.84,315.5" id="Shape"></path>
                                <path d="M243.84,315.5 L251.7775,395.3215" id="Shape"></path>
                                <path d="M188.2775,395.3215 L142.24,428.449" id="Shape"></path>
                                <path d="M188.2775,395.3215 L219.3925,450.8495" id="Shape"></path>
                                <path d="M188.2775,395.3215 L131.445,344.8415" id="Shape"></path>
                                <path d="M188.2775,395.3215 L251.7775,395.3215" id="Shape"></path>
                                <path d="M188.2775,395.3215 L176.2125,315.5" id="Shape"></path>
                                <path d="M188.2775,395.3215 L243.84,315.5" id="Shape"></path>
                                <path d="M176.2125,315.5 L221.9325,346.7345" id="Shape"></path>
                                <path d="M221.9325,346.7345 L251.7775,395.3215" id="Shape"></path>
                                <path d="M243.84,315.5 L282.575,344.8415" id="Shape"></path>
                                <path d="M282.575,344.8415 L317.5,315.5" id="Shape"></path>
                                <path d="M282.575,344.8415 L282.575,377.969" id="Shape"></path>
                                <path d="M635,631 L600.075,588.092" id="Shape"></path>
                                <path d="M600.075,588.092 L608.33,631" id="Shape"></path>
                                <path d="M600.075,588.092 L635,503.8535" id="Shape"></path>
                                <path d="M635,503.8535 L573.0875,473.25" id="Shape"></path>
                                <path d="M600.075,588.092 L573.0875,473.25" id="Shape"></path>
                                <path d="M635,551.1785 L600.075,588.092" id="Shape"></path>
                                <path d="M573.0875,473.25 L635,457.475" id="Shape"></path>
                                <path d="M600.075,588.092 L550.2275,535.719" id="Shape"></path>
                                <path d="M573.0875,473.25 L550.2275,535.719" id="Shape"></path>
                                <path d="M550.2275,535.719 L608.33,631" id="Shape"></path>
                                <path d="M550.2275,535.719 L476.25,628.7915" id="Shape"></path>
                                <path d="M550.2275,595.3485 L608.33,631" id="Shape"></path>
                                <path d="M550.2275,595.3485 L476.25,631" id="Shape"></path>
                                <path d="M550.2275,535.719 L550.2275,595.3485" id="Shape"></path>
                                <path d="M550.2275,595.3485 L530.5425,631" id="Shape"></path>
                                <path d="M550.2275,535.719 L530.5425,473.25" id="Shape"></path>
                                <path d="M530.5425,471.0415 L476.25,631" id="Shape"></path>
                                <path d="M573.0875,473.25 L544.195,409.8345" id="Shape"></path>
                                <path d="M573.0875,473.25 L530.5425,473.25" id="Shape"></path>
                                <path d="M544.195,409.8345 L530.5425,471.0415" id="Shape"></path>
                                <path d="M544.195,409.8345 L579.4375,457.475" id="Shape"></path>
                                <path d="M579.4375,457.475 L635,457.475" id="Shape"></path>
                                <path d="M579.4375,457.475 L573.0875,473.25" id="Shape"></path>
                                <path d="M579.4375,457.475 L635,419.2995" id="Shape"></path>
                                <path d="M544.195,409.8345 L586.74,365.349" id="Shape"></path>
                                <path d="M586.74,365.349 L573.0875,413.305" id="Shape"></path>
                                <path d="M573.0875,413.305 L579.4375,457.475" id="Shape"></path>
                                <path d="M573.0875,413.305 L635,419.2995" id="Shape"></path>
                                <path d="M586.74,365.349 L617.5375,387.434" id="Shape"></path>
                                <path d="M617.5375,387.434 L573.0875,413.305" id="Shape"></path>
                                <path d="M617.5375,387.434 L635,419.2995" id="Shape"></path>
                                <path d="M617.5375,387.434 L635,334.43" id="Shape"></path>
                                <path d="M635,315.5 L586.74,334.43" id="Shape"></path>
                                <path d="M635,334.43 L586.74,334.43" id="Shape"></path>
                                <path d="M586.74,334.43 L617.5375,387.434" id="Shape"></path>
                                <path d="M586.74,334.43 L586.74,365.349" id="Shape"></path>
                                <path d="M586.74,334.43 L544.195,409.8345" id="Shape"></path>
                                <path d="M544.195,409.8345 L544.195,365.349" id="Shape"></path>
                                <path d="M544.195,365.349 L586.74,334.43" id="Shape"></path>
                                <path d="M586.74,334.43 L544.195,315.5" id="Shape"></path>
                                <path d="M544.195,365.349 L503.555,344.8415" id="Shape"></path>
                                <path d="M503.555,344.8415 L586.74,334.43" id="Shape"></path>
                                <path d="M544.195,315.5 L503.555,344.8415" id="Shape"></path>
                                <path d="M503.555,344.8415 L458.7875,315.5" id="Shape"></path>
                                <path d="M503.555,344.8415 L493.0775,315.5" id="Shape"></path>
                                <path d="M503.555,344.8415 L544.195,409.8345" id="Shape"></path>
                                <path d="M476.25,631 L447.04,595.3485" id="Shape"></path>
                                <path d="M502.92,551.1785 L447.04,595.3485" id="Shape"></path>
                                <path d="M502.92,551.1785 L550.2275,535.719" id="Shape"></path>
                                <path d="M502.92,551.1785 L454.9775,519.944" id="Shape"></path>
                                <path d="M454.9775,519.944 L447.04,595.3485" id="Shape"></path>
                                <path d="M447.04,595.3485 L406.4,631" id="Shape"></path>
                                <path d="M447.04,595.3485 L387.35,569.793" id="Shape"></path>
                                <path d="M387.35,569.793 L317.5,628.7915" id="Shape"></path>
                                <path d="M387.35,569.793 L406.4,631" id="Shape"></path>
                                <path d="M387.35,569.793 L365.125,631" id="Shape"></path>
                                <path d="M387.35,569.793 L454.9775,519.944" id="Shape"></path>
                                <path d="M530.5425,473.25 L454.9775,519.944" id="Shape"></path>
                                <path d="M352.425,599.1345 L317.5,569.793" id="Shape"></path>
                                <path d="M358.14,544.8685 L387.35,569.793" id="Shape"></path>
                                <path d="M358.14,544.8685 L352.425,599.1345" id="Shape"></path>
                                <path d="M358.14,544.8685 L317.5,503.8535" id="Shape"></path>
                                <path d="M358.14,544.8685 L317.5,569.793" id="Shape"></path>
                                <path d="M358.14,544.8685 L454.9775,519.944" id="Shape"></path>
                                <path d="M358.14,544.8685 L317.5,457.475" id="Shape"></path>
                                <path d="M358.14,544.8685 L376.2375,507.955" id="Shape"></path>
                                <path d="M376.2375,507.955 L317.5,457.475" id="Shape"></path>
                                <path d="M376.2375,507.955 L454.9775,519.944" id="Shape"></path>
                                <path d="M530.5425,473.25 L492.76,428.449" id="Shape"></path>
                                <path d="M544.195,409.8345 L492.76,428.449" id="Shape"></path>
                                <path d="M503.555,344.8415 L492.76,428.449" id="Shape"></path>
                                <path d="M376.2375,507.955 L415.6075,473.25" id="Shape"></path>
                                <path d="M415.6075,473.25 L454.9775,519.944" id="Shape"></path>
                                <path d="M415.6075,473.25 L317.5,457.475" id="Shape"></path>
                                <path d="M461.645,490.6025 L415.6075,473.25" id="Shape"></path>
                                <path d="M461.645,490.6025 L530.5425,473.25" id="Shape"></path>
                                <path d="M492.76,428.449 L461.645,490.6025" id="Shape"></path>
                                <path d="M415.6075,473.25 L492.76,428.449" id="Shape"></path>
                                <path d="M415.6075,473.25 L366.395,428.449" id="Shape"></path>
                                <path d="M366.395,428.449 L317.5,457.475" id="Shape"></path>
                                <path d="M366.395,428.449 L415.6075,450.8495" id="Shape"></path>
                                <path d="M415.6075,450.8495 L492.76,428.449" id="Shape"></path>
                                <path d="M415.6075,450.8495 L415.6075,473.25" id="Shape"></path>
                                <path d="M366.395,428.449 L317.5,403.209" id="Shape"></path>
                                <path d="M366.395,428.449 L383.54,395.3215" id="Shape"></path>
                                <path d="M383.54,395.3215 L317.5,403.209" id="Shape"></path>
                                <path d="M383.54,395.3215 L415.6075,450.8495" id="Shape"></path>
                                <path d="M383.54,395.3215 L317.5,360.932" id="Shape"></path>
                                <path d="M317.5,315.5 L352.425,377.969" id="Shape"></path>
                                <path d="M352.425,377.969 L391.16,315.5" id="Shape"></path>
                                <path d="M391.16,315.5 L383.54,395.3215" id="Shape"></path>
                                <path d="M447.04,395.3215 L492.76,428.449" id="Shape"></path>
                                <path d="M447.04,395.3215 L415.6075,450.8495" id="Shape"></path>
                                <path d="M447.04,395.3215 L503.555,344.8415" id="Shape"></path>
                                <path d="M447.04,395.3215 L383.54,395.3215" id="Shape"></path>
                                <path d="M447.04,395.3215 L458.7875,315.5" id="Shape"></path>
                                <path d="M447.04,395.3215 L391.16,315.5" id="Shape"></path>
                                <path d="M458.7875,315.5 L413.0675,346.7345" id="Shape"></path>
                                <path d="M413.0675,346.7345 L383.54,395.3215" id="Shape"></path>
                                <path d="M391.16,315.5 L352.425,344.8415" id="Shape"></path>
                                <path d="M352.425,344.8415 L317.5,315.5" id="Shape"></path>
                                <path d="M352.425,344.8415 L352.425,377.969" id="Shape"></path>
                            </g>
                        </g>
                    </g>
                </g>
                <rect id="Rectangle" fill="url(#linearGradient-1)" x="0" y="0" width="635" height="631"></rect>
            </g>
        </g>
    </g>
</svg>