<?xml version="1.0" encoding="UTF-8" standalone="no"?>
<svg width="831px" height="831px" viewBox="0 0 831 831" version="1.1" xmlns="http://www.w3.org/2000/svg" xmlns:xlink="http://www.w3.org/1999/xlink">
    <!-- Generator: Sketch 41.1 (35376) - http://www.bohemiancoding.com/sketch -->
    <title>gray-fade-all</title>
    <desc>Created with Sketch.</desc>
    <defs>
        <radialGradient cx="50%" cy="50%" fx="50%" fy="50%" r="69.4295142%" id="radialGradient-1">
            <stop stop-color="#262626" stop-opacity="0" offset="0%"></stop>
            <stop stop-color="#262626" offset="100%"></stop>
        </radialGradient>
    </defs>
    <g id="Page-1" stroke="none" stroke-width="1" fill="none" fill-rule="evenodd">
        <g id="(New)-Sign-in" transform="translate(-305.000000, -74.000000)">
            <g id="gray-fade-all" transform="translate(306.000000, 74.000000)">
                <g id="gray2-copy" transform="translate(0.000000, 1.244233)" stroke-width="0.25" stroke="#B3B3B3">
                    <g id="Group">
                        <g id="Page-1">
                            <g id="Group">
                                <path d="M0,0 L45.595,56.3488433" id="Shape"></path>
                                <path d="M45.595,56.3488433 L34.818,0" id="Shape"></path>
                                <path d="M45.595,56.3488433 L0,166.974881" id="Shape"></path>
                                <path d="M0,166.974881 L80.8275,207.164865" id="Shape"></path>
                                <path d="M45.595,56.3488433 L80.8275,207.164865" id="Shape"></path>
                                <path d="M0,104.825422 L45.595,56.3488433" id="Shape"></path>
                                <path d="M80.8275,207.164865 L0,227.881352" id="Shape"></path>
                                <path d="M45.595,56.3488433 L110.6715,125.127579" id="Shape"></path>
                                <path d="M80.8275,207.164865 L110.6715,125.127579" id="Shape"></path>
                                <path d="M110.6715,125.127579 L34.818,0" id="Shape"></path>
                                <path d="M110.6715,125.127579 L207.25,2.90030811" id="Shape"></path>
                                <path d="M110.6715,46.8192595 L34.818,0" id="Shape"></path>
                                <path d="M110.6715,46.8192595 L207.25,0" id="Shape"></path>
                                <path d="M110.6715,125.127579 L110.6715,46.8192595" id="Shape"></path>
                                <path d="M110.6715,46.8192595 L136.3705,0" id="Shape"></path>
                                <path d="M110.6715,125.127579 L136.3705,207.164865" id="Shape"></path>
                                <path d="M136.3705,210.065173 L207.25,0" id="Shape"></path>
                                <path d="M80.8275,207.164865 L118.547,290.445141" id="Shape"></path>
                                <path d="M80.8275,207.164865 L136.3705,207.164865" id="Shape"></path>
                                <path d="M118.547,290.445141 L136.3705,210.065173" id="Shape"></path>
                                <path d="M118.547,290.445141 L72.5375,227.881352" id="Shape"></path>
                                <path d="M72.5375,227.881352 L0,227.881352" id="Shape"></path>
                                <path d="M72.5375,227.881352 L80.8275,207.164865" id="Shape"></path>
                                <path d="M72.5375,227.881352 L0,278.015249" id="Shape"></path>
                                <path d="M118.547,290.445141 L63.004,349.279963" id="Shape"></path>
                                <path d="M63.004,349.279963 L80.8275,285.887514" id="Shape"></path>
                                <path d="M80.8275,285.887514 L72.5375,227.881352" id="Shape"></path>
                                <path d="M80.8275,285.887514 L0,278.015249" id="Shape"></path>
                                <path d="M63.004,349.279963 L22.7975,319.862552" id="Shape"></path>
                                <path d="M22.7975,319.862552 L80.8275,285.887514" id="Shape"></path>
                                <path d="M22.7975,319.862552 L0,278.015249" id="Shape"></path>
                                <path d="M22.7975,319.862552 L0,389.469946" id="Shape"></path>
                                <path d="M0,414.32973 L63.004,389.469946" id="Shape"></path>
                                <path d="M0,389.469946 L63.004,389.469946" id="Shape"></path>
                                <path d="M63.004,389.469946 L22.7975,319.862552" id="Shape"></path>
                                <path d="M63.004,389.469946 L63.004,349.279963" id="Shape"></path>
                                <path d="M63.004,389.469946 L118.547,290.445141" id="Shape"></path>
                                <path d="M118.547,290.445141 L118.547,349.279963" id="Shape"></path>
                                <path d="M118.547,349.279963 L63.004,389.469946" id="Shape"></path>
                                <path d="M63.004,389.469946 L118.547,414.32973" id="Shape"></path>
                                <path d="M118.547,349.279963 L171.603,376.211395" id="Shape"></path>
                                <path d="M171.603,376.211395 L63.004,389.469946" id="Shape"></path>
                                <path d="M118.547,414.32973 L171.603,376.211395" id="Shape"></path>
                                <path d="M171.603,376.211395 L230.0475,414.32973" id="Shape"></path>
                                <path d="M171.603,376.211395 L185.696,414.32973" id="Shape"></path>
                                <path d="M171.603,376.211395 L118.547,290.445141" id="Shape"></path>
                                <path d="M207.25,0 L245.7985,46.8192595" id="Shape"></path>
                                <path d="M172.432,104.825422 L245.7985,46.8192595" id="Shape"></path>
                                <path d="M172.432,104.825422 L110.6715,125.127579" id="Shape"></path>
                                <path d="M172.432,104.825422 L235.436,146.258395" id="Shape"></path>
                                <path d="M235.436,146.258395 L245.7985,46.8192595" id="Shape"></path>
                                <path d="M245.7985,46.8192595 L298.44,0" id="Shape"></path>
                                <path d="M245.7985,46.8192595 L323.31,80.3799677" id="Shape"></path>
                                <path d="M323.31,80.3799677 L414.5,2.90030811" id="Shape"></path>
                                <path d="M323.31,80.3799677 L298.44,0" id="Shape"></path>
                                <path d="M323.31,80.3799677 L352.325,0" id="Shape"></path>
                                <path d="M323.31,80.3799677 L235.436,146.258395" id="Shape"></path>
                                <path d="M136.3705,207.164865 L235.436,146.258395" id="Shape"></path>
                                <path d="M368.905,41.8473028 L414.5,80.3799677" id="Shape"></path>
                                <path d="M361.8585,113.112016 L323.31,80.3799677" id="Shape"></path>
                                <path d="M361.8585,113.112016 L368.905,41.8473028" id="Shape"></path>
                                <path d="M361.8585,113.112016 L414.5,166.974881" id="Shape"></path>
                                <path d="M361.8585,113.112016 L414.5,80.3799677" id="Shape"></path>
                                <path d="M361.8585,113.112016 L235.436,146.258395" id="Shape"></path>
                                <path d="M361.8585,113.112016 L414.5,227.881352" id="Shape"></path>
                                <path d="M361.8585,113.112016 L337.8175,161.588595" id="Shape"></path>
                                <path d="M337.8175,161.588595 L414.5,227.881352" id="Shape"></path>
                                <path d="M337.8175,161.588595 L235.436,146.258395" id="Shape"></path>
                                <path d="M136.3705,207.164865 L185.696,266.414017" id="Shape"></path>
                                <path d="M118.547,290.445141 L185.696,266.414017" id="Shape"></path>
                                <path d="M171.603,376.211395 L185.696,266.414017" id="Shape"></path>
                                <path d="M337.8175,161.588595 L286.4195,207.164865" id="Shape"></path>
                                <path d="M286.4195,207.164865 L235.436,146.258395" id="Shape"></path>
                                <path d="M286.4195,207.164865 L414.5,227.881352" id="Shape"></path>
                                <path d="M226.317,184.37673 L286.4195,207.164865" id="Shape"></path>
                                <path d="M226.317,184.37673 L136.3705,207.164865" id="Shape"></path>
                                <path d="M185.696,266.414017 L226.317,184.37673" id="Shape"></path>
                                <path d="M286.4195,207.164865 L185.696,266.414017" id="Shape"></path>
                                <path d="M286.4195,207.164865 L350.667,266.414017" id="Shape"></path>
                                <path d="M350.667,266.414017 L414.5,227.881352" id="Shape"></path>
                                <path d="M350.667,266.414017 L286.4195,236.582276" id="Shape"></path>
                                <path d="M286.4195,236.582276 L185.696,266.414017" id="Shape"></path>
                                <path d="M286.4195,236.582276 L286.4195,207.164865" id="Shape"></path>
                                <path d="M350.667,266.414017 L414.5,299.146065" id="Shape"></path>
                                <path d="M350.667,266.414017 L328.6985,309.918638" id="Shape"></path>
                                <path d="M328.6985,309.918638 L414.5,299.146065" id="Shape"></path>
                                <path d="M328.6985,309.918638 L286.4195,236.582276" id="Shape"></path>
                                <path d="M328.6985,309.918638 L414.5,354.666249" id="Shape"></path>
                                <path d="M414.5,414.32973 L368.905,332.292444" id="Shape"></path>
                                <path d="M368.905,332.292444 L318.336,414.32973" id="Shape"></path>
                                <path d="M318.336,414.32973 L328.6985,309.918638" id="Shape"></path>
                                <path d="M245.7985,309.918638 L185.696,266.414017" id="Shape"></path>
                                <path d="M245.7985,309.918638 L286.4195,236.582276" id="Shape"></path>
                                <path d="M245.7985,309.918638 L171.603,376.211395" id="Shape"></path>
                                <path d="M245.7985,309.918638 L328.6985,309.918638" id="Shape"></path>
                                <path d="M245.7985,309.918638 L230.0475,414.32973" id="Shape"></path>
                                <path d="M245.7985,309.918638 L318.336,414.32973" id="Shape"></path>
                                <path d="M230.0475,414.32973 L289.7355,373.311087" id="Shape"></path>
                                <path d="M289.7355,373.311087 L328.6985,309.918638" id="Shape"></path>
                                <path d="M318.336,414.32973 L368.905,376.211395" id="Shape"></path>
                                <path d="M368.905,376.211395 L414.5,414.32973" id="Shape"></path>
                                <path d="M368.905,376.211395 L368.905,332.292444" id="Shape"></path>
                                <path d="M829,0 L783.405,56.3488433" id="Shape"></path>
                                <path d="M783.405,56.3488433 L794.182,0" id="Shape"></path>
                                <path d="M783.405,56.3488433 L829,166.974881" id="Shape"></path>
                                <path d="M829,166.974881 L748.1725,207.164865" id="Shape"></path>
                                <path d="M783.405,56.3488433 L748.1725,207.164865" id="Shape"></path>
                                <path d="M829,104.825422 L783.405,56.3488433" id="Shape"></path>
                                <path d="M748.1725,207.164865 L829,227.881352" id="Shape"></path>
                                <path d="M783.405,56.3488433 L718.3285,125.127579" id="Shape"></path>
                                <path d="M748.1725,207.164865 L718.3285,125.127579" id="Shape"></path>
                                <path d="M718.3285,125.127579 L794.182,0" id="Shape"></path>
                                <path d="M718.3285,125.127579 L621.75,2.90030811" id="Shape"></path>
                                <path d="M718.3285,46.8192595 L794.182,0" id="Shape"></path>
                                <path d="M718.3285,46.8192595 L621.75,0" id="Shape"></path>
                                <path d="M718.3285,125.127579 L718.3285,46.8192595" id="Shape"></path>
                                <path d="M718.3285,46.8192595 L692.6295,0" id="Shape"></path>
                                <path d="M718.3285,125.127579 L692.6295,207.164865" id="Shape"></path>
                                <path d="M692.6295,210.065173 L621.75,0" id="Shape"></path>
                                <path d="M748.1725,207.164865 L710.453,290.445141" id="Shape"></path>
                                <path d="M748.1725,207.164865 L692.6295,207.164865" id="Shape"></path>
                                <path d="M710.453,290.445141 L692.6295,210.065173" id="Shape"></path>
                                <path d="M710.453,290.445141 L756.4625,227.881352" id="Shape"></path>
                                <path d="M756.4625,227.881352 L829,227.881352" id="Shape"></path>
                                <path d="M756.4625,227.881352 L748.1725,207.164865" id="Shape"></path>
                                <path d="M756.4625,227.881352 L829,278.015249" id="Shape"></path>
                                <path d="M710.453,290.445141 L765.996,349.279963" id="Shape"></path>
                                <path d="M765.996,349.279963 L748.1725,285.887514" id="Shape"></path>
                                <path d="M748.1725,285.887514 L756.4625,227.881352" id="Shape"></path>
                                <path d="M748.1725,285.887514 L829,278.015249" id="Shape"></path>
                                <path d="M765.996,349.279963 L806.2025,319.862552" id="Shape"></path>
                                <path d="M806.2025,319.862552 L748.1725,285.887514" id="Shape"></path>
                                <path d="M806.2025,319.862552 L829,278.015249" id="Shape"></path>
                                <path d="M806.2025,319.862552 L829,389.469946" id="Shape"></path>
                                <path d="M829,414.32973 L765.996,389.469946" id="Shape"></path>
                                <path d="M829,389.469946 L765.996,389.469946" id="Shape"></path>
                                <path d="M765.996,389.469946 L806.2025,319.862552" id="Shape"></path>
                                <path d="M765.996,389.469946 L765.996,349.279963" id="Shape"></path>
                                <path d="M765.996,389.469946 L710.453,290.445141" id="Shape"></path>
                                <path d="M710.453,290.445141 L710.453,349.279963" id="Shape"></path>
                                <path d="M710.453,349.279963 L765.996,389.469946" id="Shape"></path>
                                <path d="M765.996,389.469946 L710.453,414.32973" id="Shape"></path>
                                <path d="M710.453,349.279963 L657.397,376.211395" id="Shape"></path>
                                <path d="M657.397,376.211395 L765.996,389.469946" id="Shape"></path>
                                <path d="M710.453,414.32973 L657.397,376.211395" id="Shape"></path>
                                <path d="M657.397,376.211395 L598.9525,414.32973" id="Shape"></path>
                                <path d="M657.397,376.211395 L643.7185,414.32973" id="Shape"></path>
                                <path d="M657.397,376.211395 L710.453,290.445141" id="Shape"></path>
                                <path d="M621.75,0 L583.616,46.8192595" id="Shape"></path>
                                <path d="M656.568,104.825422 L583.616,46.8192595" id="Shape"></path>
                                <path d="M656.568,104.825422 L718.3285,125.127579" id="Shape"></path>
                                <path d="M656.568,104.825422 L593.9785,146.258395" id="Shape"></path>
                                <path d="M593.9785,146.258395 L583.616,46.8192595" id="Shape"></path>
                                <path d="M583.616,46.8192595 L530.56,0" id="Shape"></path>
                                <path d="M583.616,46.8192595 L505.69,80.3799677" id="Shape"></path>
                                <path d="M505.69,80.3799677 L414.5,2.90030811" id="Shape"></path>
                                <path d="M505.69,80.3799677 L530.56,0" id="Shape"></path>
                                <path d="M505.69,80.3799677 L476.675,0" id="Shape"></path>
                                <path d="M505.69,80.3799677 L593.9785,146.258395" id="Shape"></path>
                                <path d="M692.6295,207.164865 L593.9785,146.258395" id="Shape"></path>
                                <path d="M460.095,41.8473028 L414.5,80.3799677" id="Shape"></path>
                                <path d="M467.556,113.112016 L505.69,80.3799677" id="Shape"></path>
                                <path d="M467.556,113.112016 L460.095,41.8473028" id="Shape"></path>
                                <path d="M467.556,113.112016 L414.5,166.974881" id="Shape"></path>
                                <path d="M467.556,113.112016 L414.5,80.3799677" id="Shape"></path>
                                <path d="M467.556,113.112016 L593.9785,146.258395" id="Shape"></path>
                                <path d="M467.556,113.112016 L414.5,227.881352" id="Shape"></path>
                                <path d="M467.556,113.112016 L491.1825,161.588595" id="Shape"></path>
                                <path d="M491.1825,161.588595 L414.5,227.881352" id="Shape"></path>
                                <path d="M491.1825,161.588595 L593.9785,146.258395" id="Shape"></path>
                                <path d="M692.6295,207.164865 L643.304,266.414017" id="Shape"></path>
                                <path d="M710.453,290.445141 L643.304,266.414017" id="Shape"></path>
                                <path d="M657.397,376.211395 L643.304,266.414017" id="Shape"></path>
                                <path d="M491.1825,161.588595 L542.5805,207.164865" id="Shape"></path>
                                <path d="M542.5805,207.164865 L593.9785,146.258395" id="Shape"></path>
                                <path d="M542.5805,207.164865 L414.5,227.881352" id="Shape"></path>
                                <path d="M602.683,184.37673 L542.5805,207.164865" id="Shape"></path>
                                <path d="M602.683,184.37673 L692.6295,207.164865" id="Shape"></path>
                                <path d="M643.304,266.414017 L602.683,184.37673" id="Shape"></path>
                                <path d="M542.5805,207.164865 L643.304,266.414017" id="Shape"></path>
                                <path d="M542.5805,207.164865 L478.333,266.414017" id="Shape"></path>
                                <path d="M478.333,266.414017 L414.5,227.881352" id="Shape"></path>
                                <path d="M478.333,266.414017 L542.5805,236.582276" id="Shape"></path>
                                <path d="M542.5805,236.582276 L643.304,266.414017" id="Shape"></path>
                                <path d="M542.5805,236.582276 L542.5805,207.164865" id="Shape"></path>
                                <path d="M478.333,266.414017 L414.5,299.146065" id="Shape"></path>
                                <path d="M478.333,266.414017 L500.716,309.918638" id="Shape"></path>
                                <path d="M500.716,309.918638 L414.5,299.146065" id="Shape"></path>
                                <path d="M500.716,309.918638 L542.5805,236.582276" id="Shape"></path>
                                <path d="M500.716,309.918638 L414.5,354.666249" id="Shape"></path>
                                <path d="M414.5,414.32973 L460.095,332.292444" id="Shape"></path>
                                <path d="M460.095,332.292444 L510.664,414.32973" id="Shape"></path>
                                <path d="M510.664,414.32973 L500.716,309.918638" id="Shape"></path>
                                <path d="M583.616,309.918638 L643.304,266.414017" id="Shape"></path>
                                <path d="M583.616,309.918638 L542.5805,236.582276" id="Shape"></path>
                                <path d="M583.616,309.918638 L657.397,376.211395" id="Shape"></path>
                                <path d="M583.616,309.918638 L500.716,309.918638" id="Shape"></path>
                                <path d="M583.616,309.918638 L598.9525,414.32973" id="Shape"></path>
                                <path d="M583.616,309.918638 L510.664,414.32973" id="Shape"></path>
                                <path d="M598.9525,414.32973 L539.2645,373.311087" id="Shape"></path>
                                <path d="M539.2645,373.311087 L500.716,309.918638" id="Shape"></path>
                                <path d="M510.664,414.32973 L460.095,376.211395" id="Shape"></path>
                                <path d="M460.095,376.211395 L414.5,414.32973" id="Shape"></path>
                                <path d="M460.095,376.211395 L460.095,332.292444" id="Shape"></path>
                                <path d="M0,828.659461 L45.595,772.310617" id="Shape"></path>
                                <path d="M45.595,772.310617 L34.818,828.659461" id="Shape"></path>
                                <path d="M45.595,772.310617 L0,661.684579" id="Shape"></path>
                                <path d="M0,661.684579 L80.8275,621.494595" id="Shape"></path>
                                <path d="M45.595,772.310617 L80.8275,621.494595" id="Shape"></path>
                                <path d="M0,723.834039 L45.595,772.310617" id="Shape"></path>
                                <path d="M80.8275,621.494595 L0,600.778109" id="Shape"></path>
                                <path d="M45.595,772.310617 L110.6715,703.531882" id="Shape"></path>
                                <path d="M80.8275,621.494595 L110.6715,703.531882" id="Shape"></path>
                                <path d="M110.6715,703.531882 L34.818,828.659461" id="Shape"></path>
                                <path d="M110.6715,703.531882 L207.25,825.759152" id="Shape"></path>
                                <path d="M110.6715,781.840201 L34.818,828.659461" id="Shape"></path>
                                <path d="M110.6715,781.840201 L207.25,828.659461" id="Shape"></path>
                                <path d="M110.6715,703.531882 L110.6715,781.840201" id="Shape"></path>
                                <path d="M110.6715,781.840201 L136.3705,828.659461" id="Shape"></path>
                                <path d="M110.6715,703.531882 L136.3705,621.494595" id="Shape"></path>
                                <path d="M136.3705,618.594287 L207.25,828.659461" id="Shape"></path>
                                <path d="M80.8275,621.494595 L118.547,538.21432" id="Shape"></path>
                                <path d="M80.8275,621.494595 L136.3705,621.494595" id="Shape"></path>
                                <path d="M118.547,538.21432 L136.3705,618.594287" id="Shape"></path>
                                <path d="M118.547,538.21432 L72.5375,600.778109" id="Shape"></path>
                                <path d="M72.5375,600.778109 L0,600.778109" id="Shape"></path>
                                <path d="M72.5375,600.778109 L80.8275,621.494595" id="Shape"></path>
                                <path d="M72.5375,600.778109 L0,550.644212" id="Shape"></path>
                                <path d="M118.547,538.21432 L63.004,479.793828" id="Shape"></path>
                                <path d="M63.004,479.793828 L80.8275,542.771947" id="Shape"></path>
                                <path d="M80.8275,542.771947 L72.5375,600.778109" id="Shape"></path>
                                <path d="M80.8275,542.771947 L0,550.644212" id="Shape"></path>
                                <path d="M63.004,479.793828 L22.7975,508.796909" id="Shape"></path>
                                <path d="M22.7975,508.796909 L80.8275,542.771947" id="Shape"></path>
                                <path d="M22.7975,508.796909 L0,550.644212" id="Shape"></path>
                                <path d="M22.7975,508.796909 L0,439.189514" id="Shape"></path>
                                <path d="M0,414.32973 L63.004,439.189514" id="Shape"></path>
                                <path d="M0,439.189514 L63.004,439.189514" id="Shape"></path>
                                <path d="M63.004,439.189514 L22.7975,508.796909" id="Shape"></path>
                                <path d="M63.004,439.189514 L63.004,479.793828" id="Shape"></path>
                                <path d="M63.004,439.189514 L118.547,538.21432" id="Shape"></path>
                                <path d="M118.547,538.21432 L118.547,479.793828" id="Shape"></path>
                                <path d="M118.547,479.793828 L63.004,439.189514" id="Shape"></path>
                                <path d="M63.004,439.189514 L118.547,414.32973" id="Shape"></path>
                                <path d="M118.547,479.793828 L171.603,452.862395" id="Shape"></path>
                                <path d="M171.603,452.862395 L63.004,439.189514" id="Shape"></path>
                                <path d="M118.547,414.32973 L171.603,452.862395" id="Shape"></path>
                                <path d="M171.603,452.862395 L230.0475,414.32973" id="Shape"></path>
                                <path d="M171.603,452.862395 L185.696,414.32973" id="Shape"></path>
                                <path d="M171.603,452.862395 L118.547,538.21432" id="Shape"></path>
                                <path d="M207.25,828.659461 L245.7985,781.840201" id="Shape"></path>
                                <path d="M172.432,723.834039 L245.7985,781.840201" id="Shape"></path>
                                <path d="M172.432,723.834039 L110.6715,703.531882" id="Shape"></path>
                                <path d="M172.432,723.834039 L235.436,682.815395" id="Shape"></path>
                                <path d="M235.436,682.815395 L245.7985,781.840201" id="Shape"></path>
                                <path d="M245.7985,781.840201 L298.44,828.659461" id="Shape"></path>
                                <path d="M245.7985,781.840201 L323.31,748.279493" id="Shape"></path>
                                <path d="M323.31,748.279493 L414.5,825.759152" id="Shape"></path>
                                <path d="M323.31,748.279493 L298.44,828.659461" id="Shape"></path>
                                <path d="M323.31,748.279493 L352.325,828.659461" id="Shape"></path>
                                <path d="M323.31,748.279493 L235.436,682.815395" id="Shape"></path>
                                <path d="M136.3705,621.494595 L235.436,682.815395" id="Shape"></path>
                                <path d="M368.905,786.812158 L414.5,748.279493" id="Shape"></path>
                                <path d="M361.8585,715.547444 L323.31,748.279493" id="Shape"></path>
                                <path d="M361.8585,715.547444 L368.905,786.812158" id="Shape"></path>
                                <path d="M361.8585,715.547444 L414.5,661.684579" id="Shape"></path>
                                <path d="M361.8585,715.547444 L414.5,748.279493" id="Shape"></path>
                                <path d="M361.8585,715.547444 L235.436,682.815395" id="Shape"></path>
                                <path d="M361.8585,715.547444 L414.5,600.778109" id="Shape"></path>
                                <path d="M361.8585,715.547444 L337.8175,667.070866" id="Shape"></path>
                                <path d="M337.8175,667.070866 L414.5,600.778109" id="Shape"></path>
                                <path d="M337.8175,667.070866 L235.436,682.815395" id="Shape"></path>
                                <path d="M136.3705,621.494595 L185.696,562.659774" id="Shape"></path>
                                <path d="M118.547,538.21432 L185.696,562.659774" id="Shape"></path>
                                <path d="M171.603,452.862395 L185.696,562.659774" id="Shape"></path>
                                <path d="M337.8175,667.070866 L286.4195,621.494595" id="Shape"></path>
                                <path d="M286.4195,621.494595 L235.436,682.815395" id="Shape"></path>
                                <path d="M286.4195,621.494595 L414.5,600.778109" id="Shape"></path>
                                <path d="M226.317,644.282731 L286.4195,621.494595" id="Shape"></path>
                                <path d="M226.317,644.282731 L136.3705,621.494595" id="Shape"></path>
                                <path d="M185.696,562.659774 L226.317,644.282731" id="Shape"></path>
                                <path d="M286.4195,621.494595 L185.696,562.659774" id="Shape"></path>
                                <path d="M286.4195,621.494595 L350.667,562.659774" id="Shape"></path>
                                <path d="M350.667,562.659774 L414.5,600.778109" id="Shape"></path>
                                <path d="M350.667,562.659774 L286.4195,592.077185" id="Shape"></path>
                                <path d="M286.4195,592.077185 L185.696,562.659774" id="Shape"></path>
                                <path d="M286.4195,592.077185 L286.4195,621.494595" id="Shape"></path>
                                <path d="M350.667,562.659774 L414.5,529.513395" id="Shape"></path>
                                <path d="M350.667,562.659774 L328.6985,519.155152" id="Shape"></path>
                                <path d="M328.6985,519.155152 L414.5,529.513395" id="Shape"></path>
                                <path d="M328.6985,519.155152 L286.4195,592.077185" id="Shape"></path>
                                <path d="M328.6985,519.155152 L414.5,473.993211" id="Shape"></path>
                                <path d="M414.5,414.32973 L368.905,496.367017" id="Shape"></path>
                                <path d="M368.905,496.367017 L318.336,414.32973" id="Shape"></path>
                                <path d="M318.336,414.32973 L328.6985,519.155152" id="Shape"></path>
                                <path d="M245.7985,519.155152 L185.696,562.659774" id="Shape"></path>
                                <path d="M245.7985,519.155152 L286.4195,592.077185" id="Shape"></path>
                                <path d="M245.7985,519.155152 L171.603,452.862395" id="Shape"></path>
                                <path d="M245.7985,519.155152 L328.6985,519.155152" id="Shape"></path>
                                <path d="M245.7985,519.155152 L230.0475,414.32973" id="Shape"></path>
                                <path d="M245.7985,519.155152 L318.336,414.32973" id="Shape"></path>
                                <path d="M230.0475,414.32973 L289.7355,455.348374" id="Shape"></path>
                                <path d="M289.7355,455.348374 L328.6985,519.155152" id="Shape"></path>
                                <path d="M318.336,414.32973 L368.905,452.862395" id="Shape"></path>
                                <path d="M368.905,452.862395 L414.5,414.32973" id="Shape"></path>
                                <path d="M368.905,452.862395 L368.905,496.367017" id="Shape"></path>
                                <path d="M829,828.659461 L783.405,772.310617" id="Shape"></path>
                                <path d="M783.405,772.310617 L794.182,828.659461" id="Shape"></path>
                                <path d="M783.405,772.310617 L829,661.684579" id="Shape"></path>
                                <path d="M829,661.684579 L748.1725,621.494595" id="Shape"></path>
                                <path d="M783.405,772.310617 L748.1725,621.494595" id="Shape"></path>
                                <path d="M829,723.834039 L783.405,772.310617" id="Shape"></path>
                                <path d="M748.1725,621.494595 L829,600.778109" id="Shape"></path>
                                <path d="M783.405,772.310617 L718.3285,703.531882" id="Shape"></path>
                                <path d="M748.1725,621.494595 L718.3285,703.531882" id="Shape"></path>
                                <path d="M718.3285,703.531882 L794.182,828.659461" id="Shape"></path>
                                <path d="M718.3285,703.531882 L621.75,825.759152" id="Shape"></path>
                                <path d="M718.3285,781.840201 L794.182,828.659461" id="Shape"></path>
                                <path d="M718.3285,781.840201 L621.75,828.659461" id="Shape"></path>
                                <path d="M718.3285,703.531882 L718.3285,781.840201" id="Shape"></path>
                                <path d="M718.3285,781.840201 L692.6295,828.659461" id="Shape"></path>
                                <path d="M718.3285,703.531882 L692.6295,621.494595" id="Shape"></path>
                                <path d="M692.6295,618.594287 L621.75,828.659461" id="Shape"></path>
                                <path d="M748.1725,621.494595 L710.453,538.21432" id="Shape"></path>
                                <path d="M748.1725,621.494595 L692.6295,621.494595" id="Shape"></path>
                                <path d="M710.453,538.21432 L692.6295,618.594287" id="Shape"></path>
                                <path d="M710.453,538.21432 L756.4625,600.778109" id="Shape"></path>
                                <path d="M756.4625,600.778109 L829,600.778109" id="Shape"></path>
                                <path d="M756.4625,600.778109 L748.1725,621.494595" id="Shape"></path>
                                <path d="M756.4625,600.778109 L829,550.644212" id="Shape"></path>
                                <path d="M710.453,538.21432 L765.996,479.793828" id="Shape"></path>
                                <path d="M765.996,479.793828 L748.1725,542.771947" id="Shape"></path>
                                <path d="M748.1725,542.771947 L756.4625,600.778109" id="Shape"></path>
                                <path d="M748.1725,542.771947 L829,550.644212" id="Shape"></path>
                                <path d="M765.996,479.793828 L806.2025,508.796909" id="Shape"></path>
                                <path d="M806.2025,508.796909 L748.1725,542.771947" id="Shape"></path>
                                <path d="M806.2025,508.796909 L829,550.644212" id="Shape"></path>
                                <path d="M806.2025,508.796909 L829,439.189514" id="Shape"></path>
                                <path d="M829,414.32973 L765.996,439.189514" id="Shape"></path>
                                <path d="M829,439.189514 L765.996,439.189514" id="Shape"></path>
                                <path d="M765.996,439.189514 L806.2025,508.796909" id="Shape"></path>
                                <path d="M765.996,439.189514 L765.996,479.793828" id="Shape"></path>
                                <path d="M765.996,439.189514 L710.453,538.21432" id="Shape"></path>
                                <path d="M710.453,538.21432 L710.453,479.793828" id="Shape"></path>
                                <path d="M710.453,479.793828 L765.996,439.189514" id="Shape"></path>
                                <path d="M765.996,439.189514 L710.453,414.32973" id="Shape"></path>
                                <path d="M710.453,479.793828 L657.397,452.862395" id="Shape"></path>
                                <path d="M657.397,452.862395 L765.996,439.189514" id="Shape"></path>
                                <path d="M710.453,414.32973 L657.397,452.862395" id="Shape"></path>
                                <path d="M657.397,452.862395 L598.9525,414.32973" id="Shape"></path>
                                <path d="M657.397,452.862395 L643.7185,414.32973" id="Shape"></path>
                                <path d="M657.397,452.862395 L710.453,538.21432" id="Shape"></path>
                                <path d="M621.75,828.659461 L583.616,781.840201" id="Shape"></path>
                                <path d="M656.568,723.834039 L583.616,781.840201" id="Shape"></path>
                                <path d="M656.568,723.834039 L718.3285,703.531882" id="Shape"></path>
                                <path d="M656.568,723.834039 L593.9785,682.815395" id="Shape"></path>
                                <path d="M593.9785,682.815395 L583.616,781.840201" id="Shape"></path>
                                <path d="M583.616,781.840201 L530.56,828.659461" id="Shape"></path>
                                <path d="M583.616,781.840201 L505.69,748.279493" id="Shape"></path>
                                <path d="M505.69,748.279493 L414.5,825.759152" id="Shape"></path>
                                <path d="M505.69,748.279493 L530.56,828.659461" id="Shape"></path>
                                <path d="M505.69,748.279493 L476.675,828.659461" id="Shape"></path>
                                <path d="M505.69,748.279493 L593.9785,682.815395" id="Shape"></path>
                                <path d="M692.6295,621.494595 L593.9785,682.815395" id="Shape"></path>
                                <path d="M460.095,786.812158 L414.5,748.279493" id="Shape"></path>
                                <path d="M467.556,715.547444 L505.69,748.279493" id="Shape"></path>
                                <path d="M467.556,715.547444 L460.095,786.812158" id="Shape"></path>
                                <path d="M467.556,715.547444 L414.5,661.684579" id="Shape"></path>
                                <path d="M467.556,715.547444 L414.5,748.279493" id="Shape"></path>
                                <path d="M467.556,715.547444 L593.9785,682.815395" id="Shape"></path>
                                <path d="M467.556,715.547444 L414.5,600.778109" id="Shape"></path>
                                <path d="M467.556,715.547444 L491.1825,667.070866" id="Shape"></path>
                                <path d="M491.1825,667.070866 L414.5,600.778109" id="Shape"></path>
                                <path d="M491.1825,667.070866 L593.9785,682.815395" id="Shape"></path>
                                <path d="M692.6295,621.494595 L643.304,562.659774" id="Shape"></path>
                                <path d="M710.453,538.21432 L643.304,562.659774" id="Shape"></path>
                                <path d="M657.397,452.862395 L643.304,562.659774" id="Shape"></path>
                                <path d="M491.1825,667.070866 L542.5805,621.494595" id="Shape"></path>
                                <path d="M542.5805,621.494595 L593.9785,682.815395" id="Shape"></path>
                                <path d="M542.5805,621.494595 L414.5,600.778109" id="Shape"></path>
                                <path d="M602.683,644.282731 L542.5805,621.494595" id="Shape"></path>
                                <path d="M602.683,644.282731 L692.6295,621.494595" id="Shape"></path>
                                <path d="M643.304,562.659774 L602.683,644.282731" id="Shape"></path>
                                <path d="M542.5805,621.494595 L643.304,562.659774" id="Shape"></path>
                                <path d="M542.5805,621.494595 L478.333,562.659774" id="Shape"></path>
                                <path d="M478.333,562.659774 L414.5,600.778109" id="Shape"></path>
                                <path d="M478.333,562.659774 L542.5805,592.077185" id="Shape"></path>
                                <path d="M542.5805,592.077185 L643.304,562.659774" id="Shape"></path>
                                <path d="M542.5805,592.077185 L542.5805,621.494595" id="Shape"></path>
                                <path d="M478.333,562.659774 L414.5,529.513395" id="Shape"></path>
                                <path d="M478.333,562.659774 L500.716,519.155152" id="Shape"></path>
                                <path d="M500.716,519.155152 L414.5,529.513395" id="Shape"></path>
                                <path d="M500.716,519.155152 L542.5805,592.077185" id="Shape"></path>
                                <path d="M500.716,519.155152 L414.5,473.993211" id="Shape"></path>
                                <path d="M414.5,414.32973 L460.095,496.367017" id="Shape"></path>
                                <path d="M460.095,496.367017 L510.664,414.32973" id="Shape"></path>
                                <path d="M510.664,414.32973 L500.716,519.155152" id="Shape"></path>
                                <path d="M583.616,519.155152 L643.304,562.659774" id="Shape"></path>
                                <path d="M583.616,519.155152 L542.5805,592.077185" id="Shape"></path>
                                <path d="M583.616,519.155152 L657.397,452.862395" id="Shape"></path>
                                <path d="M583.616,519.155152 L500.716,519.155152" id="Shape"></path>
                                <path d="M583.616,519.155152 L598.9525,414.32973" id="Shape"></path>
                                <path d="M583.616,519.155152 L510.664,414.32973" id="Shape"></path>
                                <path d="M598.9525,414.32973 L539.2645,455.348374" id="Shape"></path>
                                <path d="M539.2645,455.348374 L500.716,519.155152" id="Shape"></path>
                                <path d="M510.664,414.32973 L460.095,452.862395" id="Shape"></path>
                                <path d="M460.095,452.862395 L414.5,414.32973" id="Shape"></path>
                                <path d="M460.095,452.862395 L460.095,496.367017" id="Shape"></path>
                            </g>
                        </g>
                    </g>
                </g>
                <rect id="Rectangle" fill="url(#radialGradient-1)" x="0" y="0" width="829" height="828.659461"></rect>
            </g>
        </g>
    </g>
</svg>