<?xml version="1.0" encoding="UTF-8" standalone="no"?>
<svg width="139px" height="102px" viewBox="0 0 139 102" version="1.1" xmlns="http://www.w3.org/2000/svg" xmlns:xlink="http://www.w3.org/1999/xlink">
    <!-- Generator: Sketch 41.1 (35376) - http://www.bohemiancoding.com/sketch -->
    <title>handshake-flat</title>
    <desc>Created with Sketch.</desc>
    <defs></defs>
    <g id="Page-1" stroke="none" stroke-width="1" fill="none" fill-rule="evenodd">
        <g id="(New-index)" transform="translate(-1006.000000, -680.000000)">
            <g id="handshake-flat" transform="translate(1006.000000, 680.000000)">
                <g id="Layer_1">
                    <g id="Group">
                        <polygon id="Shape" fill="#FFC533" points="121.892308 48.3157895 91.6865385 17.7157895 89.0134615 15.0315789 103.982692 0 139 35.1631579 124.030769 50.4631579"></polygon>
                        <polygon id="Shape" fill="#FFFFFF" points="91.6865385 17.7157895 121.892308 48.3157895 113.605769 56.9052632 111.467308 54.4894737 85.5384615 27.9157895 83.6673077 26.0368421"></polygon>
                        <path d="M53.7288462,42.4105263 L61.4807692,34.3578947 L62.8173077,33.0157895 C64.1538462,31.6736842 66.2923077,30.8684211 68.4307692,30.8684211 L79.925,31.6736842 C80.9942308,31.6736842 82.0634615,31.4052632 82.5980769,30.6 L85.5384615,27.6473684 L111.2,54.2210526 L109.328846,56.3684211 C108.794231,56.9052632 107.992308,57.7105263 107.457692,58.2473684 L98.9038462,69.7894737 L98.9038462,69.7894737 L80.9942308,51.5368421 C75.3807692,51.5368421 70.3019231,49.3894737 68.1634615,46.4368421 L68.1634615,46.4368421 L58.0057692,56.3684211 C57.2038462,57.1736842 56.1346154,57.7105263 54.7980769,57.7105263 C52.9269231,57.7105263 51.0557692,56.6368421 49.7192308,55.2947368 C47.5807692,53.1473684 47.3134615,49.1210526 49.4519231,46.7052632 L53.7288462,42.4105263 L53.7288462,42.4105263 Z" id="Shape" fill="#F9DAC5"></path>
                        <path d="M102.378846,73.2789474 L98.9038462,69.7894737 L80.9942308,51.5368421 C75.3807692,51.5368421 70.3019231,49.3894737 68.1634615,46.4368421 L68.1634615,46.4368421 L58.0057692,56.3684211 C57.2038462,57.1736842 56.1346154,57.7105263 54.7980769,57.7105263 C52.9269231,57.7105263 51.0557692,56.6368421 49.7192308,55.2947368 C47.5807692,53.1473684 47.3134615,49.1210526 49.4519231,46.7052632 L53.7288462,42.4105263 L61.4807692,34.3578947 L62.8173077,33.0157895 L57.2038462,31.1368421 C56.6692308,30.8684211 56.1346154,30.3315789 55.6,30.0631579 L52.6596154,27.1105263 L26.9980769,52.0736842 L35.0173077,66.0315789 L36.3538462,67.3736842 L39.0269231,64.6894737 C40.8980769,62.8105263 44.1057692,62.8105263 45.9769231,64.6894737 C46.7788462,65.7631579 47.3134615,66.8368421 47.3134615,68.1789474 C47.3134615,69.5210526 46.7788462,70.8631579 45.9769231,71.6684211 L43.5711538,74.0842105 L44.3730769,74.8894737 L48.1153846,71.1315789 C49.9865385,69.2526316 52.9269231,69.2526316 54.7980769,71.1315789 L55.0653846,71.4 C56.9365385,73.2789474 56.9365385,76.5 55.0653846,78.3789474 L51.3230769,82.1368421 L52.125,82.9421053 L55.3326923,79.7210526 C57.2038462,77.8421053 60.1442308,77.8421053 62.0153846,79.7210526 L62.2826923,79.9894737 C64.1538462,81.8684211 64.1538462,85.0894737 62.2826923,86.9684211 L59.075,90.1894737 L59.8769231,90.9947368 L61.4807692,89.3842105 C63.3519231,87.5052632 66.5596154,87.5052632 68.4307692,89.6526316 C69.2326923,90.7263158 69.7673077,91.8 69.7673077,92.8736842 C69.7673077,94.2157895 69.2326923,95.5578947 68.1634615,96.6315789 L66.8269231,97.9736842 L67.0942308,98.2421053 L69.7673077,100.657895 C70.5692308,101.463158 72.1730769,102 73.5096154,102 C74.8461538,102 76.45,101.463158 77.2519231,100.657895 C79.1230769,98.7789474 79.1230769,95.0210526 77.2519231,93.1421053 L77.2519231,93.1421053 L78.5884615,94.4842105 C79.6576923,95.5578947 81.5288462,96.0947368 83.1326923,96.0947368 C84.4692308,96.0947368 85.8057692,95.8263158 86.3403846,95.0210526 C88.2115385,93.1421053 88.2115385,90.4578947 87.1423077,88.5789474 C87.9442308,89.6526316 89.8153846,90.1894737 91.4192308,90.1894737 C92.7557692,90.1894737 94.0923077,89.9210526 94.8942308,88.8473684 C96.7653846,86.9684211 96.7653846,83.2105263 95.1615385,81.6 L95.1615385,81.6 C96.2307692,82.4052632 97.3,82.6736842 98.6365385,82.6736842 C99.9730769,82.6736842 101.309615,82.1368421 102.378846,81.3315789 C104.25,79.1842105 104.25,75.1578947 102.378846,73.2789474 L102.378846,73.2789474 Z" id="Shape" fill="#E2BB9F"></path>
                        <path d="M68.1634615,89.6526316 C66.2923077,87.5052632 63.3519231,87.5052632 61.2134615,89.3842105 L59.6096154,90.9947368 L57.7384615,92.6052632 C56.6692308,93.6789474 56.1346154,95.0210526 56.1346154,96.3631579 C56.1346154,97.7052632 56.6692308,98.7789474 57.4711538,99.8526316 C59.3423077,102 62.2826923,102 64.1538462,100.121053 L66.2923077,97.9736842 L67.6288462,96.6315789 C68.6980769,95.5578947 69.2326923,94.2157895 69.2326923,92.8736842 C69.5,91.8 68.9653846,90.4578947 68.1634615,89.6526316 L68.1634615,89.6526316 Z" id="Shape" fill="#F9DAC5"></path>
                        <path d="M55.0653846,44.0210526 L60.9461538,50.4631579 L57.2038462,54.2210526 C55.6,55.8315789 52.9269231,55.8315789 51.3230769,53.9526316 L51.0557692,53.6842105 C49.4519231,52.0736842 49.7192308,49.1210526 51.3230769,47.7789474 L55.0653846,44.0210526 L55.0653846,44.0210526 Z" id="Shape" fill="#FFF4EE"></path>
                        <path d="M62.0153846,79.9894737 L62.0153846,79.9894737 C59.8769231,77.8421053 56.9365385,77.8421053 55.0653846,79.7210526 L51.8576923,82.9421053 L48.65,86.1631579 C46.7788462,88.0421053 46.7788462,91.2631579 48.65,93.1421053 L48.9173077,93.4105263 C50.7884615,95.2894737 53.7288462,95.2894737 55.6,93.4105263 L58.8076923,90.1894737 L62.0153846,86.9684211 C63.8865385,85.0894737 63.8865385,81.8684211 62.0153846,79.9894737 L62.0153846,79.9894737 Z" id="Shape" fill="#F9DAC5"></path>
                        <polygon id="Shape" fill="#FFFFFF" points="54.7980769 25.2315789 52.9269231 27.1105263 27.2653846 52.0736842 24.5923077 54.4894737 17.1076923 46.7052632 46.7788462 17.1789474"></polygon>
                        <path d="M54.7980769,71.6684211 L54.7980769,71.6684211 C52.6596154,69.5210526 49.7192308,69.5210526 47.8480769,71.4 L44.1057692,75.1578947 L39.8288462,79.4526316 C37.9576923,81.3315789 37.9576923,84.5526316 39.8288462,86.4315789 L40.0961538,86.7 C41.9673077,88.5789474 45.175,88.5789474 46.7788462,86.7 L51.0557692,82.1368421 L54.7980769,78.3789474 C56.6692308,76.7684211 56.6692308,73.5473684 54.7980769,71.6684211 L54.7980769,71.6684211 Z" id="Shape" fill="#F9DAC5"></path>
                        <polygon id="Shape" fill="#81C784" points="17.1076923 46.7052632 14.9692308 49.1210526 0 34.0894737 33.6807692 0 48.65 15.0315789 46.5115385 17.1789474"></polygon>
                        <path d="M45.9769231,64.6894737 C44.1057692,62.8105263 40.8980769,62.5421053 39.0269231,64.6894737 L36.3538462,67.3736842 L35.0173077,68.7157895 C33.9480769,69.7894737 33.6807692,71.1315789 33.6807692,72.2052632 C33.6807692,73.5473684 34.2153846,74.6210526 35.0173077,75.6947368 C36.8884615,77.5736842 40.0961538,77.8421053 41.9673077,75.6947368 L43.5711538,74.0842105 L45.9769231,71.6684211 C47.0461538,70.5947368 47.3134615,69.2526316 47.3134615,68.1789474 C47.3134615,67.1052632 46.7788462,65.7631579 45.9769231,64.6894737 L45.9769231,64.6894737 Z" id="Shape" fill="#F9DAC5"></path>
                        <path d="M17.6423077,31.4052632 C18.9788462,32.7473684 18.9788462,35.1631579 17.6423077,36.5052632 C16.3057692,37.8473684 13.9,37.8473684 12.5634615,36.5052632 C11.2269231,35.1631579 11.2269231,32.7473684 12.5634615,31.4052632 C13.9,30.0631579 16.0384615,30.0631579 17.6423077,31.4052632 L17.6423077,31.4052632 Z" id="Shape" fill="#FFFFFF"></path>
                        <path d="M44.6403846,66.3 C45.7096154,67.6421053 45.9769231,69.5210526 44.9076923,70.3263158 L42.5019231,72.7421053 L38.225,67.9105263 L40.6307692,65.4947368 C41.4326923,64.4210526 43.3038462,64.6894737 44.6403846,66.3 L44.6403846,66.3 L44.6403846,66.3 Z" id="Shape" fill="#FFF4EE"></path>
                        <path d="M67.0942308,90.9947368 C68.1634615,92.3368421 68.4307692,93.9473684 67.6288462,94.7526316 L65.7576923,96.6315789 L61.4807692,91.5315789 L63.3519231,89.6526316 C64.1538462,89.1157895 65.7576923,89.3842105 67.0942308,90.9947368 L67.0942308,90.9947368 L67.0942308,90.9947368 Z" id="Shape" fill="#FFF4EE"></path>
                        <path d="M60.9461538,81.3315789 C62.0153846,82.6736842 62.2826923,84.2842105 61.2134615,85.3578947 L58.8076923,87.5052632 L54.2634615,82.6736842 L56.4019231,80.5263158 C57.4711538,79.7210526 59.075,79.7210526 60.1442308,81.0631579 L60.9461538,81.3315789 L60.9461538,81.3315789 Z" id="Shape" fill="#FFF4EE"></path>
                        <path d="M53.9961538,72.4736842 C55.0653846,73.8157895 55.0653846,75.6947368 53.9961538,77.0368421 L51.3230769,79.7210526 L46.7788462,74.6210526 L49.7192308,71.9368421 C50.7884615,70.8631579 52.9269231,70.8631579 53.9961538,72.2052632 L53.9961538,72.4736842 L53.9961538,72.4736842 Z" id="Shape" fill="#FFF4EE"></path>
                    </g>
                </g>
            </g>
        </g>
    </g>
</svg>