<?xml version="1.0" encoding="UTF-8" standalone="no"?>
<svg width="39px" height="52px" viewBox="0 0 39 52" version="1.1" xmlns="http://www.w3.org/2000/svg" xmlns:xlink="http://www.w3.org/1999/xlink">
    <!-- Generator: Sketch 41.1 (35376) - http://www.bohemiancoding.com/sketch -->
    <title>burn-button</title>
    <desc>Created with Sketch.</desc>
    <defs>
        <linearGradient x1="50%" y1="0%" x2="50%" y2="100%" id="linearGradient-1">
            <stop stop-color="#FBDA61" offset="0%"></stop>
            <stop stop-color="#F76B1C" offset="100%"></stop>
        </linearGradient>
        <path d="M23.3847656,0 C23.3847656,0 24.9386719,6.5 24.9386719,11.7 C24.9386719,16.64 21.5719766,20.8 16.6511719,20.8 C11.7303672,20.8 7.84570312,16.64 7.84570312,11.7 L7.84570312,10.92 C2.925,16.9 0.076171875,24.44 0.076171875,32.5 C0.076171875,43.16 8.88164062,52 19.5,52 C30.1183594,52 38.9238281,43.16 38.9238281,32.5 C38.9238281,19.24 32.9671875,7.54 23.3847656,0 L23.3847656,0 Z M19.5,44.2 C15.0972656,44.2 11.7304688,40.82 11.7304688,36.66 C11.7304688,32.76 14.3203125,29.9 18.4640625,29.12 C22.8668984,28.340102 27.2695312,26.26 29.6003906,22.88 C30.6363281,26 31.1542969,29.38 31.1542969,32.76 C31.1542969,39 25.9746094,44.2 19.5,44.2 L19.5,44.2 Z" id="path-2"></path>
        <filter x="-50%" y="-50%" width="200%" height="200%" filterUnits="objectBoundingBox" id="filter-3">
            <feGaussianBlur stdDeviation="2.5" in="SourceAlpha" result="shadowBlurInner1"></feGaussianBlur>
            <feOffset dx="3" dy="3" in="shadowBlurInner1" result="shadowOffsetInner1"></feOffset>
            <feComposite in="shadowOffsetInner1" in2="SourceAlpha" operator="arithmetic" k2="-1" k3="1" result="shadowInnerInner1"></feComposite>
            <feColorMatrix values="0 0 0 0 0   0 0 0 0 0   0 0 0 0 0  0 0 0 0.5 0" type="matrix" in="shadowInnerInner1"></feColorMatrix>
        </filter>
    </defs>
    <g id="Page-1" stroke="none" stroke-width="1" fill="none" fill-rule="evenodd">
        <g id="(New)-Client-(Boosting,-booster-info)" transform="translate(-349.000000, -289.000000)">
            <g id="burn-button" transform="translate(349.000000, 289.000000)">
                <g id="Capa_1">
                    <g id="whatshot">
                        <g id="Shape">
                            <use fill="url(#linearGradient-1)" fill-rule="evenodd" xlink:href="#path-2"></use>
                            <use fill="black" fill-opacity="1" filter="url(#filter-3)" xlink:href="#path-2"></use>
                        </g>
                    </g>
                </g>
            </g>
        </g>
    </g>
</svg>