<?xml version="1.0" encoding="UTF-8" standalone="no"?>
<svg width="189px" height="251px" viewBox="0 0 189 251" version="1.1" xmlns="http://www.w3.org/2000/svg" xmlns:xlink="http://www.w3.org/1999/xlink">
    <!-- Generator: Sketch 41.1 (35376) - http://www.bohemiancoding.com/sketch -->
    <title>burn-button</title>
    <desc>Created with Sketch.</desc>
    <defs>
        <linearGradient x1="50%" y1="3.27424876%" x2="50%" y2="100%" id="linearGradient-1">
            <stop stop-color="#B4ED50" offset="0%"></stop>
            <stop stop-color="#429321" offset="100%"></stop>
        </linearGradient>
        <path d="M113.326172,0 C113.326172,0 120.856641,31.375 120.856641,56.475 C120.856641,80.32 104.541117,100.4 80.6941406,100.4 C56.8471641,100.4 38.0214844,80.32 38.0214844,56.475 L38.0214844,52.71 C14.175,81.575 0.369140625,117.97 0.369140625,156.875 C0.369140625,208.33 43.0417969,251 94.5,251 C145.958203,251 188.630859,208.33 188.630859,156.875 C188.630859,92.87 159.764062,36.395 113.326172,0 L113.326172,0 Z M94.5,213.35 C73.1636719,213.35 56.8476562,197.035 56.8476562,176.955 C56.8476562,158.13 69.3984375,144.325 89.4796875,140.56 C110.816508,136.795492 132.152344,126.755 143.448047,110.44 C148.468359,125.5 150.978516,141.815 150.978516,158.13 C150.978516,188.25 125.876953,213.35 94.5,213.35 L94.5,213.35 Z" id="path-2"></path>
        <filter x="-50%" y="-50%" width="200%" height="200%" filterUnits="objectBoundingBox" id="filter-3">
            <feGaussianBlur stdDeviation="2.5" in="SourceAlpha" result="shadowBlurInner1"></feGaussianBlur>
            <feOffset dx="3" dy="3" in="shadowBlurInner1" result="shadowOffsetInner1"></feOffset>
            <feComposite in="shadowOffsetInner1" in2="SourceAlpha" operator="arithmetic" k2="-1" k3="1" result="shadowInnerInner1"></feComposite>
            <feColorMatrix values="0 0 0 0 0   0 0 0 0 0   0 0 0 0 0  0 0 0 0.5 0" type="matrix" in="shadowInnerInner1"></feColorMatrix>
        </filter>
    </defs>
    <g id="Page-1" stroke="none" stroke-width="1" fill="none" fill-rule="evenodd">
        <g id="(New-index)" transform="translate(-213.000000, -190.000000)">
            <g id="burn-button" transform="translate(213.000000, 190.000000)">
                <g id="Capa_1">
                    <g id="whatshot">
                        <g id="Shape">
                            <use fill="url(#linearGradient-1)" fill-rule="evenodd" xlink:href="#path-2"></use>
                            <use fill="black" fill-opacity="1" filter="url(#filter-3)" xlink:href="#path-2"></use>
                        </g>
                    </g>
                </g>
            </g>
        </g>
    </g>
</svg>