<?xml version="1.0" encoding="UTF-8" standalone="no"?>
<svg width="24px" height="20px" viewBox="0 0 24 20" version="1.1" xmlns="http://www.w3.org/2000/svg" xmlns:xlink="http://www.w3.org/1999/xlink">
    <!-- Generator: Sketch 41.1 (35376) - http://www.bohemiancoding.com/sketch -->
    <title>menu</title>
    <desc>Created with Sketch.</desc>
    <defs></defs>
    <g id="Page-1" stroke="none" stroke-width="1" fill="none" fill-rule="evenodd">
        <g id="(New)-Booster-List" transform="translate(-61.000000, -186.000000)" fill="#FFFFFF">
            <g id="menu" transform="translate(61.000000, 186.000000)">
                <g id="Group">
                    <path d="M24,1 C24,0.4 23.6,0 23,0 L1,0 C0.4,0 0,0.4 0,1 L0,3 C0,3.6 0.4,4 1,4 L23,4 C23.6,4 24,3.6 24,3 L24,1 L24,1 Z" id="Shape"></path>
                    <path d="M24,9 C24,8.4 23.6,8 23,8 L1,8 C0.4,8 0,8.4 0,9 L0,11 C0,11.6 0.4,12 1,12 L23,12 C23.6,12 24,11.6 24,11 L24,9 L24,9 Z" id="Shape"></path>
                    <path d="M24,17 C24,16.4 23.6,16 23,16 L1,16 C0.4,16 0,16.4 0,17 L0,19 C0,19.6 0.4,20 1,20 L23,20 C23.6,20 24,19.6 24,19 L24,17 L24,17 Z" id="Shape"></path>
                </g>
            </g>
        </g>
    </g>
</svg>