<?xml version="1.0" encoding="UTF-8" standalone="no"?>
<svg width="30px" height="31px" viewBox="0 0 30 31" version="1.1" xmlns="http://www.w3.org/2000/svg" xmlns:xlink="http://www.w3.org/1999/xlink">
    <!-- Generator: Sketch 41.1 (35376) - http://www.bohemiancoding.com/sketch -->
    <title>price-tag</title>
    <desc>Created with Sketch.</desc>
    <defs></defs>
    <g id="Page-1" stroke="none" stroke-width="1" fill="none" fill-rule="evenodd">
        <g id="(New)-New-ticket-(Booster)" transform="translate(-455.000000, -729.000000)">
            <g id="price-tag" transform="translate(455.000000, 729.000000)">
                <g id="Capa_1">
                    <g id="Group">
                        <path d="M15.3661017,2.58333333 L0.631016949,17.6793 C0.129152542,18.18925 0.129152542,19.0164333 0.631016949,19.5269 L11.0374576,30.101 C11.539322,30.61095 12.3533898,30.61095 12.8557627,30.101 L27.2033898,15.128 L27.2033898,2.58333333 L15.3661017,2.58333333 Z M22.1186441,9.81666667 C20.9954237,9.81666667 20.0847458,8.89131667 20.0847458,7.75 C20.0847458,6.60868333 20.9954237,5.68333333 22.1186441,5.68333333 C23.2418644,5.68333333 24.1525424,6.60868333 24.1525424,7.75 C24.1525424,8.89131667 23.2418644,9.81666667 22.1186441,9.81666667 Z" id="Shape" fill="#E8D5B2"></path>
                        <path d="M22.1186441,8.26666667 C21.9884746,8.26666667 21.8583051,8.21603333 21.7591525,8.11528333 C21.560339,7.91326667 21.560339,7.58673333 21.7591525,7.38471667 L28.8777966,0.151383333 C29.0766102,-0.0506333333 29.3979661,-0.0506333333 29.5967797,0.151383333 C29.7955932,0.3534 29.7955932,0.679933333 29.5967797,0.88195 L22.4781356,8.11528333 C22.3789831,8.21603333 22.2488136,8.26666667 22.1186441,8.26666667 Z" id="Shape" fill="#D75A4A"></path>
                        <g transform="translate(8.135593, 6.200000)" id="Shape" fill="#CBB292">
                            <path d="M13.3459322,9.96185 L7.95305085,15.4421333 C7.75423729,15.64415 7.75423729,15.9706833 7.95305085,16.1727 C8.05220339,16.27345 8.18237288,16.3240833 8.31254237,16.3240833 C8.44271186,16.3240833 8.57288136,16.27345 8.6720339,16.1727 L14.0649153,10.6929333 C14.2637288,10.4909167 14.2637288,10.1643833 14.0649153,9.96236667 C13.8661017,9.76035 13.5447458,9.76035 13.3459322,9.96185 Z"></path>
                            <path d="M15.8588136,8.13233333 C15.670678,7.94116667 15.3355932,7.94116667 15.1423729,8.13233333 C15.050339,8.22998333 14.9949153,8.36431667 14.9949153,8.49916667 C14.9949153,8.63866667 15.050339,8.77248333 15.1423729,8.866 C15.2384746,8.96365 15.370678,9.01583333 15.5033898,9.01583333 C15.6355932,9.01583333 15.7677966,8.96365 15.8588136,8.866 C15.9554237,8.77248333 16.0118644,8.63866667 16.0118644,8.49916667 C16.0118644,8.36431667 15.9559322,8.2305 15.8588136,8.13233333 Z"></path>
                            <path d="M10.8289831,3.751 C11.0277966,3.54898333 11.0277966,3.22245 10.8289831,3.02043333 C10.6301695,2.81841667 10.3088136,2.81841667 10.11,3.02043333 L4.71661017,8.50071667 C4.51779661,8.70273333 4.51779661,9.02926667 4.71661017,9.23128333 C4.81576271,9.33203333 4.9459322,9.38266667 5.07610169,9.38266667 C5.20627119,9.38266667 5.33644068,9.33203333 5.43559322,9.23128333 L10.8289831,3.751 Z"></path>
                            <path d="M9.03152542,9.96185 C9.13067797,10.0626 9.26084746,10.1132333 9.39101695,10.1132333 C9.52118644,10.1132333 9.65135593,10.0626 9.75050847,9.96185 L13.3459322,6.3085 C13.5447458,6.10648333 13.5447458,5.77995 13.3459322,5.57793333 C13.1471186,5.37591667 12.8257627,5.37591667 12.6269492,5.57793333 L9.03152542,9.23128333 C8.83271186,9.4333 8.83271186,9.76035 9.03152542,9.96185 Z"></path>
                            <path d="M6.15457627,12.15355 L5.43559322,12.8841167 C5.23677966,13.0861333 5.23677966,13.4126667 5.43559322,13.6146833 C5.53474576,13.7154333 5.66491525,13.7660667 5.79508475,13.7660667 C5.92525424,13.7660667 6.05542373,13.7154333 6.15457627,13.6146833 L6.87355932,12.8841167 C7.07237288,12.6821 7.07237288,12.3555667 6.87355932,12.15355 C6.67474576,11.9515333 6.35338983,11.95205 6.15457627,12.15355 Z"></path>
                            <path d="M6.51457627,2.28986667 C6.31576271,2.08785 5.99440678,2.08785 5.79559322,2.28986667 L0.40220339,7.76963333 C0.203389831,7.97165 0.203389831,8.29818333 0.40220339,8.5002 C0.501355932,8.60095 0.631525424,8.65158333 0.761694915,8.65158333 C0.891864407,8.65158333 1.0220339,8.60095 1.12118644,8.5002 L6.5140678,3.02043333 C6.71288136,2.81841667 6.71288136,2.49136667 6.51457627,2.28986667 Z"></path>
                            <path d="M7.95254237,1.34333333 C8.08474576,1.34333333 8.21745763,1.29166667 8.31355932,1.1935 C8.40559322,1.09585 8.46101695,0.966683333 8.46101695,0.826666667 C8.46101695,0.692333333 8.40559322,0.558 8.30847458,0.459833333 C8.12033898,0.268666667 7.78474576,0.268666667 7.59152542,0.465 C7.5,0.558516667 7.4440678,0.692333333 7.4440678,0.826666667 C7.4440678,0.961 7.5,1.09585 7.59152542,1.1935 C7.68813559,1.29166667 7.82033898,1.34333333 7.95254237,1.34333333 Z"></path>
                            <path d="M3.27966102,9.96133333 C3.18305085,10.0589833 3.13220339,10.18815 3.13220339,10.3281667 C3.13220339,10.4676667 3.18305085,10.5968333 3.27966102,10.6893167 C3.37118644,10.7874833 3.50288136,10.8448333 3.64067797,10.8448333 C3.77288136,10.8448333 3.90508475,10.788 3.99610169,10.695 C4.09271186,10.5968333 4.14915254,10.4625 4.14915254,10.3281667 C4.14915254,10.1933167 4.09322034,10.0589833 3.99610169,9.96133333 C3.80847458,9.77016667 3.46728814,9.77016667 3.27966102,9.96133333 Z"></path>
                            <path d="M8.31355932,11.4229833 C8.40559322,11.3299833 8.46101695,11.1961667 8.46101695,11.05615 C8.46101695,10.9218167 8.40559322,10.7874833 8.31355932,10.6893167 C8.12033898,10.49815 7.78474576,10.49815 7.59152542,10.6893167 C7.5,10.7874833 7.4440678,10.9218167 7.4440678,11.05615 C7.4440678,11.1961667 7.5,11.3253333 7.59152542,11.4229833 C7.68813559,11.52115 7.82033898,11.5728167 7.95254237,11.5728167 C8.08474576,11.5728167 8.21694915,11.5216667 8.31355932,11.4229833 Z"></path>
                        </g>
                        <path d="M12.8522034,24.9302 L12.5344068,24.6072833 C12.8471186,24.1273 12.9966102,23.5527667 12.9483051,22.9684167 C12.9086441,22.4806833 12.6772881,22.0399667 12.2974576,21.7268667 C11.9084746,21.40705 11.3979661,21.2603167 10.9052542,21.32335 L9.48050847,21.5041833 L7.52491525,19.5170833 C8.09135593,19.2437667 8.78847458,19.33935 9.25677966,19.8152 C9.45559322,20.0172167 9.77694915,20.0172167 9.97576271,19.8152 C10.1745763,19.6131833 10.1745763,19.28665 9.97576271,19.0846333 C9.10779661,18.2026833 7.76288136,18.0936667 6.7759322,18.75655 L6.37983051,18.3540667 C6.18101695,18.15205 5.85966102,18.15205 5.66084746,18.3540667 C5.4620339,18.5560833 5.4620339,18.8826167 5.66084746,19.0846333 L6.0579661,19.48815 C5.74576271,19.9676167 5.59627119,20.5426667 5.64457627,21.1270167 C5.68423729,21.6142333 5.91559322,22.0554667 6.29491525,22.36805 C6.68389831,22.6878667 7.19135593,22.8351167 7.68762712,22.7726 L9.11237288,22.5917667 L11.0628814,24.5737 C10.4979661,24.83255 9.78661017,24.738 9.33610169,24.2802333 C9.13728814,24.0782167 8.8159322,24.0782167 8.61711864,24.2802333 C8.41830508,24.4817333 8.41830508,24.8087833 8.61711864,25.0108 C9.09661017,25.4985333 9.73525424,25.7677167 10.4145763,25.7677167 C10.9210169,25.7677167 11.4040678,25.6173667 11.8164407,25.3394 L12.1327119,25.6607667 C12.2318644,25.7615167 12.3620339,25.81215 12.4922034,25.81215 C12.6223729,25.81215 12.7525424,25.7615167 12.8516949,25.6607667 C13.0510169,25.45875 13.0510169,25.1322167 12.8522034,24.9302 Z M7.5620339,21.7475333 C7.33932203,21.7754333 7.11,21.7103333 6.93610169,21.5656667 C6.77389831,21.4313333 6.67474576,21.2453333 6.6579661,21.0407333 C6.63559322,20.7638 6.69355932,20.4935833 6.8079661,20.2492 L8.20220339,21.6659 L7.5620339,21.7475333 Z M11.0318644,22.3484167 C11.2520339,22.3179333 11.4823729,22.3856167 11.6567797,22.5297667 C11.8194915,22.6641 11.9186441,22.8501 11.9354237,23.0547 C11.9577966,23.3316333 11.8998305,23.60185 11.7849153,23.8462333 L10.3911864,22.43005 L11.0318644,22.3484167 Z" id="Shape" fill="#4C8056"></path>
                    </g>
                </g>
            </g>
        </g>
    </g>
</svg>